<?xml version="1.0" encoding="UTF-8" standalone="no"?>
<svg
   xmlns:dc="http://purl.org/dc/elements/1.1/"
   xmlns:cc="http://creativecommons.org/ns#"
   xmlns:rdf="http://www.w3.org/1999/02/22-rdf-syntax-ns#"
   xmlns:svg="http://www.w3.org/2000/svg"
   xmlns="http://www.w3.org/2000/svg"
   viewBox="0 0 304.12 215.03467"
   height="350"
   width="450"
   xml:space="preserve"
   id="svg2"
   version="1.1"><metadata
     id="metadata8"><rdf:RDF><cc:Work
         rdf:about=""><dc:format>image/svg+xml</dc:format><dc:type
           rdf:resource="http://purl.org/dc/dcmitype/StillImage" /></cc:Work></rdf:RDF></metadata><defs
     id="defs6"><clipPath
       id="clipPath18"
       clipPathUnits="userSpaceOnUse"><path
         id="path16"
         d="M 0,161.276 H 228.09 V 0 H 0 Z" /></clipPath></defs><g
     transform="matrix(1.3333333,0,0,-1.3333333,0,215.03467)"
     id="g10"><g
       id="g12"><g
         clip-path="url(#clipPath18)"
         id="g14"><g
           transform="translate(96.1822,14.1641)"
           id="g20"><path
             id="path22"
             style="fill:#B28C67;fill-opacity:1;fill-rule:nonzero;stroke:none"
             d="M 0,0 C 0.095,0 0.187,0.019 0.276,0.055 0.366,0.09 0.444,0.142 0.512,0.205 0.58,0.271 0.635,0.349 0.677,0.437 0.718,0.525 0.739,0.625 0.739,0.733 0.739,0.836 0.72,0.934 0.683,1.021 0.645,1.111 0.593,1.188 0.527,1.253 0.461,1.318 0.383,1.37 0.294,1.407 0.205,1.445 0.109,1.464 0.009,1.464 H -1.348 V 0 Z m -1.348,1.831 h 1.2 c 0.088,0 0.173,0.018 0.252,0.051 0.08,0.034 0.15,0.081 0.212,0.14 0.061,0.061 0.109,0.132 0.145,0.213 0.036,0.082 0.054,0.17 0.054,0.266 0,0.093 -0.018,0.182 -0.054,0.264 C 0.425,2.847 0.377,2.918 0.317,2.979 0.257,3.041 0.187,3.089 0.106,3.123 0.025,3.158 -0.06,3.176 -0.148,3.176 h -1.2 z m -0.457,-2.227 v 3.959 h 1.68 C 0.036,3.563 0.184,3.537 0.32,3.487 0.456,3.438 0.573,3.366 0.671,3.274 0.769,3.185 0.845,3.074 0.901,2.947 0.956,2.82 0.984,2.681 0.984,2.526 0.984,2.437 0.97,2.348 0.943,2.263 0.916,2.176 0.878,2.098 0.831,2.024 0.783,1.952 0.727,1.889 0.662,1.831 0.597,1.774 0.527,1.73 0.451,1.697 0.558,1.666 0.658,1.619 0.751,1.559 0.844,1.495 0.925,1.421 0.994,1.335 1.062,1.248 1.117,1.152 1.157,1.047 1.197,0.94 1.217,0.83 1.217,0.713 1.217,0.538 1.184,0.382 1.119,0.244 1.054,0.106 0.967,-0.01 0.858,-0.104 0.75,-0.196 0.625,-0.27 0.483,-0.319 0.341,-0.371 0.194,-0.396 0.041,-0.396 Z" /></g><g
           transform="translate(105.9644,17.7295)"
           id="g24"><path
             id="path26"
             style="fill:#B28C67;fill-opacity:1;fill-rule:nonzero;stroke:none"
             d="M 0,0 H 0.46 V -2.427 C 0.46,-2.666 0.419,-2.884 0.337,-3.082 0.256,-3.28 0.144,-3.45 0,-3.592 c -0.144,-0.14 -0.315,-0.252 -0.515,-0.33 -0.2,-0.079 -0.418,-0.118 -0.652,-0.118 -0.229,0 -0.443,0.038 -0.641,0.113 -0.197,0.076 -0.369,0.185 -0.515,0.325 -0.145,0.141 -0.26,0.311 -0.343,0.509 -0.084,0.199 -0.126,0.421 -0.126,0.666 V 0 h 0.455 v -2.425 c 0,-0.164 0.025,-0.32 0.077,-0.467 0.051,-0.146 0.127,-0.274 0.225,-0.384 0.099,-0.112 0.222,-0.2 0.367,-0.263 0.146,-0.065 0.313,-0.097 0.501,-0.097 0.182,0 0.345,0.032 0.489,0.095 0.143,0.063 0.266,0.149 0.366,0.258 0.102,0.108 0.179,0.236 0.232,0.383 0.054,0.144 0.08,0.299 0.08,0.467 z" /></g><g
           transform="translate(113.8814,14.1729)"
           id="g28"><path
             id="path30"
             style="fill:#B28C67;fill-opacity:1;fill-rule:nonzero;stroke:none"
             d="m 0,0 c 0.258,0 0.487,0.036 0.687,0.109 0.202,0.074 0.372,0.177 0.509,0.313 0.138,0.137 0.241,0.302 0.313,0.493 0.071,0.193 0.106,0.41 0.106,0.65 0,0.232 -0.033,0.445 -0.1,0.638 C 1.448,2.397 1.348,2.564 1.213,2.706 1.08,2.846 0.912,2.956 0.71,3.034 0.508,3.113 0.271,3.152 0,3.152 H -0.972 V 0 Z M -1.429,3.555 H 0.012 C 0.31,3.555 0.586,3.511 0.839,3.423 1.093,3.336 1.312,3.208 1.494,3.039 1.678,2.87 1.821,2.663 1.924,2.418 2.026,2.172 2.078,1.893 2.078,1.578 2.078,1.282 2.033,1.014 1.942,0.771 1.853,0.526 1.72,0.317 1.546,0.146 1.371,-0.029 1.156,-0.164 0.901,-0.261 0.646,-0.355 0.353,-0.404 0.023,-0.404 h -1.452 z" /></g><g
           transform="translate(124.4956,17.7275)"
           id="g32"><path
             id="path34"
             style="fill:#B28C67;fill-opacity:1;fill-rule:nonzero;stroke:none"
             d="M 0,0 H 0.489 L -1.202,-3.959 H -1.63 L -3.32,0 h 0.485 l 1.418,-3.358 h 0.003 z" /></g><g
           transform="translate(130.6753,15.0928)"
           id="g36"><path
             id="path38"
             style="fill:#B28C67;fill-opacity:1;fill-rule:nonzero;stroke:none"
             d="M 0,0 H 1.711 L 0.873,1.978 0.854,2.043 0.841,1.978 Z M 1.88,-0.398 H -0.169 L -0.562,-1.324 H -1.048 L 0.635,2.635 H 1.08 L 2.759,-1.324 H 2.273 Z" /></g><g
           transform="translate(104.7876,101.5078)"
           id="g40"><path
             id="path42"
             style="fill:#B28C67;fill-opacity:1;fill-rule:nonzero;stroke:none"
             d="M 0,0 C 0.2,0.403 0.586,1.254 0.852,1.886 1.122,2.517 1.583,3.489 1.878,4.042 2.173,4.594 2.488,5.167 2.58,5.317 2.667,5.462 2.846,5.508 2.97,5.421 3.099,5.333 3.273,5.213 3.365,5.164 3.452,5.109 3.605,5.051 3.697,5.026 3.792,5.005 3.942,4.984 4.034,4.98 4.125,4.977 4.287,4.984 4.399,4.997 c 0.108,0.017 0.374,0.158 0.594,0.308 0.216,0.153 0.494,0.357 0.623,0.448 0.125,0.1 0.66,0.544 1.184,1.001 0.528,0.453 1.259,1.105 1.62,1.454 0.361,0.345 0.768,0.744 0.901,0.881 0.133,0.137 0.387,0.544 0.565,0.909 0.179,0.366 0.586,1.176 0.902,1.803 0.316,0.627 0.885,1.612 1.263,2.193 0.382,0.578 0.843,1.317 1.034,1.637 0.19,0.32 0.345,0.461 0.345,0.307 0,-0.153 0.033,-0.473 0.079,-0.71 0.041,-0.237 0.162,-0.565 0.265,-0.727 0.104,-0.162 0.482,-0.548 0.835,-0.852 0.353,-0.307 0.681,-0.598 0.727,-0.652 0.046,-0.054 0.175,-0.241 0.278,-0.423 0.104,-0.179 0.258,-0.42 0.345,-0.536 0.083,-0.117 0.249,-0.266 0.366,-0.337 0.116,-0.066 0.382,-0.207 0.59,-0.311 0.212,-0.108 0.552,-0.241 0.76,-0.299 0.203,-0.058 0.315,-0.192 0.249,-0.299 -0.07,-0.104 -0.15,-0.32 -0.174,-0.478 C 17.725,10.156 17.691,9.853 17.675,9.633 17.658,9.417 17.671,9.026 17.699,8.765 17.733,8.499 17.795,8.083 17.837,7.843 17.878,7.602 17.97,7.228 18.04,7.012 c 0.066,-0.216 0.121,-0.54 0.121,-0.719 0,-0.178 0.025,-0.652 0.05,-1.046 0.024,-0.395 0.05,-1.052 0.05,-1.455 0,-0.407 -0.022,-1 -0.042,-1.32 C 18.198,2.147 18.106,1.633 18.02,1.321 17.928,1.009 17.75,0.569 17.616,0.345 17.483,0.116 17.222,-0.241 17.031,-0.453 16.84,-0.668 16.562,-0.951 16.408,-1.084 16.258,-1.221 15.98,-1.421 15.797,-1.533 15.61,-1.645 15.361,-1.736 15.24,-1.736 h -0.507 c -0.157,0 -0.394,0.104 -0.527,0.233 -0.133,0.124 -0.457,0.323 -0.719,0.444 -0.261,0.12 -0.863,0.257 -1.333,0.299 -0.465,0.041 -1.096,0.092 -1.395,0.108 C 10.455,-0.635 10.011,-0.673 9.762,-0.731 9.517,-0.789 9.072,-0.943 8.786,-1.067 8.495,-1.192 8.067,-1.421 7.838,-1.575 7.606,-1.724 7.298,-1.803 7.157,-1.745 7.012,-1.687 6.459,-1.583 5.919,-1.516 5.384,-1.445 4.511,-1.358 3.984,-1.312 3.456,-1.271 2.442,-1.188 1.724,-1.13 1.01,-1.072 0.283,-1.009 0.117,-0.989 c -0.171,0.021 -0.346,0.063 -0.395,0.092 -0.046,0.033 -0.087,0.079 -0.087,0.108 0,0.029 0.166,0.382 0.365,0.789 M 29.547,6.426 C 29.505,6.488 29.352,6.654 29.202,6.8 29.131,6.866 29.007,6.987 28.861,7.128 28.703,7.282 28.512,7.465 28.342,7.63 c -0.328,0.321 -0.81,0.753 -1.08,0.969 -0.27,0.211 -0.648,0.539 -0.848,0.731 -0.195,0.187 -0.855,0.905 -1.466,1.595 -0.61,0.685 -1.325,1.453 -1.594,1.707 -0.271,0.253 -0.533,0.544 -0.59,0.648 -0.055,0.104 -0.113,0.64 -0.129,1.192 -0.013,0.552 -0.005,1.163 0.028,1.35 0.033,0.191 0.188,0.577 0.345,0.864 0.158,0.283 0.333,0.594 0.39,0.689 0.055,0.092 0.122,0.25 0.142,0.345 0.024,0.092 -0.02,0.229 -0.1,0.3 -0.079,0.074 -0.215,0.178 -0.303,0.232 -0.087,0.054 -0.158,0.216 -0.158,0.357 0,0.141 0.034,0.789 0.075,1.437 0.038,0.648 0.062,1.596 0.054,2.098 -0.008,0.507 -0.012,1.163 -0.012,1.467 0,0.299 0.046,0.681 0.099,0.847 0.054,0.166 0.124,0.507 0.159,0.76 0.033,0.253 0.078,0.748 0.099,1.093 0.025,0.349 -0.009,1.416 -0.071,2.372 -0.063,0.955 -0.174,3.094 -0.245,4.755 -0.071,1.658 -0.12,3.477 -0.116,4.038 0.008,0.561 0.062,1.225 0.116,1.479 0.054,0.253 0.108,0.556 0.116,0.677 0.009,0.116 0.071,0.378 0.145,0.573 0.072,0.199 0.133,0.594 0.142,0.877 0.008,0.286 0.087,0.71 0.17,0.947 0.092,0.236 0.267,0.618 0.391,0.847 0.125,0.228 0.257,0.498 0.287,0.59 0.033,0.095 0.174,0.224 0.315,0.286 0.146,0.067 0.291,0.175 0.332,0.246 0.042,0.074 0.05,0.191 0.029,0.257 -0.024,0.075 -0.108,0.133 -0.186,0.133 h -0.345 c -0.112,0 -0.042,0.12 0.157,0.27 0.196,0.154 0.437,0.332 0.533,0.403 0.089,0.07 0.153,0.204 0.129,0.286 -0.026,0.092 -0.109,0.163 -0.188,0.163 -0.079,0 -0.058,0.112 0.042,0.257 0.104,0.141 0.17,0.337 0.146,0.428 -0.026,0.096 -0.109,0.175 -0.188,0.175 h -0.258 c -0.061,0 -0.336,-0.2 -0.606,-0.445 -0.266,-0.245 -0.652,-0.594 -0.86,-0.777 -0.204,-0.183 -0.336,-0.174 -0.287,0.017 0.046,0.187 0.146,0.536 0.212,0.773 0.075,0.236 0.183,0.552 0.245,0.706 0.067,0.149 0.105,0.344 0.088,0.427 -0.016,0.092 -0.088,0.158 -0.158,0.158 -0.07,0 -0.191,-0.024 -0.274,-0.054 -0.075,-0.033 -0.22,-0.178 -0.316,-0.332 -0.096,-0.15 -0.278,-0.499 -0.415,-0.773 -0.134,-0.278 -0.349,-0.831 -0.473,-1.225 -0.129,-0.395 -0.291,-0.989 -0.358,-1.321 -0.075,-0.332 -0.262,-1.566 -0.42,-2.746 -0.157,-1.175 -0.606,-4.573 -0.992,-7.548 -0.387,-2.978 -0.711,-5.744 -0.723,-6.147 -0.012,-0.407 0.017,-1.209 0.062,-1.782 0.05,-0.573 0.079,-1.292 0.066,-1.595 -0.011,-0.308 -0.07,-1.092 -0.128,-1.753 -0.058,-0.656 -0.287,-1.209 -0.511,-1.221 -0.229,-0.012 -0.469,0.045 -0.544,0.133 -0.071,0.087 -0.22,0.237 -0.332,0.332 -0.113,0.096 -0.337,0.212 -0.503,0.258 -0.166,0.049 -0.432,0.066 -0.59,0.041 -0.157,-0.021 -0.402,0.112 -0.544,0.303 -0.146,0.191 -0.553,0.636 -0.905,0.993 -0.358,0.354 -0.773,0.731 -0.918,0.831 -0.155,0.104 -0.42,0.228 -0.59,0.274 -0.175,0.046 -0.395,0.062 -0.49,0.029 C 13.546,23.893 13.371,23.735 13.251,23.569 13.135,23.403 12.798,22.851 12.508,22.343 12.213,21.841 11.789,21.064 11.556,20.62 11.328,20.179 10.966,19.428 10.755,18.954 10.538,18.48 10.248,17.791 10.106,17.417 9.965,17.047 9.732,16.366 9.587,15.909 9.446,15.452 9.222,14.708 9.084,14.256 8.952,13.807 8.694,13.064 8.511,12.603 8.329,12.146 8.129,11.66 8.067,11.527 8.005,11.394 7.843,11.245 7.706,11.194 7.573,11.149 7.315,11.124 7.132,11.137 6.95,11.153 6.671,11.17 6.513,11.17 c -0.158,0 -0.286,0.029 -0.286,0.07 0,0.038 -0.038,0.162 -0.087,0.275 -0.046,0.108 -0.025,0.307 0.045,0.444 0.071,0.133 0.142,0.436 0.158,0.673 0.017,0.237 0.054,0.515 0.083,0.619 0.033,0.103 0.116,0.282 0.187,0.403 0.075,0.116 0.1,0.286 0.058,0.374 C 6.634,14.115 6.48,14.235 6.327,14.302 6.177,14.364 5.969,14.389 5.865,14.356 5.766,14.327 5.57,14.269 5.437,14.227 5.3,14.189 5.109,14.111 5.005,14.057 4.902,13.999 4.756,13.911 4.673,13.853 4.594,13.799 4.482,13.625 4.416,13.467 4.354,13.309 4.212,13.056 4.1,12.906 3.988,12.756 3.697,12.453 3.452,12.229 3.211,12.009 2.846,11.697 2.65,11.54 2.451,11.381 2.11,10.996 1.89,10.679 1.666,10.364 1.284,9.783 1.043,9.388 0.793,8.993 0.403,8.433 0.162,8.15 -0.075,7.863 -0.436,7.373 -0.64,7.057 -0.847,6.742 -1.196,6.285 -1.417,6.036 -1.641,5.794 -2.151,5.254 -2.554,4.843 -2.958,4.432 -3.51,3.872 -3.788,3.597 -4.062,3.319 -4.619,2.758 -5.022,2.347 -5.42,1.939 -5.84,1.554 -5.952,1.487 c -0.266,0.291 -0.52,0.59 -0.76,0.901 -1.026,1.334 -1.845,2.792 -2.385,4.391 -0.153,0.457 -0.199,0.951 -0.374,1.396 -0.436,1.113 -0.544,2.276 -0.577,3.451 -0.046,1.513 -0.092,3.029 -0.096,4.545 0,0.914 0.08,1.828 0.117,2.746 0.066,1.79 0.12,3.58 0.195,5.366 0.038,0.873 0.029,1.758 0.174,2.613 0.283,1.687 0.291,3.39 0.404,5.084 0.091,1.371 0.203,2.746 0.315,4.117 0.108,1.387 0.22,2.771 0.336,4.158 0.05,0.561 0.096,1.125 0.146,1.686 h -1.23 c -0.216,-1.113 -0.216,-2.268 -0.315,-3.406 -0.117,-1.342 -0.225,-2.687 -0.332,-4.029 -0.113,-1.442 -0.225,-2.882 -0.32,-4.324 -0.121,-1.811 -0.229,-3.626 -0.333,-5.437 -0.062,-1.093 -0.12,-2.185 -0.154,-3.278 -0.07,-2.322 -0.132,-4.648 -0.174,-6.974 -0.02,-0.985 -0.046,-1.973 0.025,-2.953 0.1,-1.355 0.258,-2.705 0.449,-4.051 0.129,-0.934 0.299,-1.869 0.54,-2.783 0.22,-0.822 0.54,-1.628 0.86,-2.421 0.585,-1.442 1.179,-2.883 2.122,-4.15 0.025,-0.033 0.05,-0.067 0.079,-0.104 0.66,-0.901 1.242,-1.865 2.09,-2.621 0.307,-0.274 0.61,-0.556 0.913,-0.839 0,0 0.005,0 0.005,-0.005 0.332,-0.302 0.668,-0.61 1.017,-0.896 0.544,-0.458 1.113,-0.901 1.724,-1.255 0.735,-0.428 1.516,-0.785 2.301,-1.109 0.893,-0.369 1.807,-0.69 2.729,-0.985 0.495,-0.161 1.014,-0.261 1.533,-0.34 0.228,-0.033 0.453,-0.071 0.681,-0.108 0.096,-0.477 0.187,-1.117 0.233,-1.686 0.071,-0.873 0.124,-2.219 0.124,-2.987 0,-0.768 0.108,-2.849 0.237,-4.619 0.129,-1.77 0.2,-3.706 0.158,-4.304 -0.042,-0.598 -0.15,-1.395 -0.237,-1.777 -0.083,-0.379 -0.257,-0.993 -0.386,-1.367 -0.129,-0.369 -0.274,-0.931 -0.328,-1.25 -0.058,-0.312 -0.12,-0.794 -0.145,-1.06 -0.025,-0.269 0.008,-0.964 0.07,-1.537 0.063,-0.577 0.199,-1.545 0.303,-2.141 0.104,-0.604 0.233,-1.535 0.287,-2.071 0.054,-0.535 0.129,-3.517 0.158,-4.199 0.029,-0.677 0.025,-1.44 -0.017,-1.693 -0.037,-0.255 -0.162,-0.608 -0.27,-0.79 -0.112,-0.184 -0.382,-0.508 -0.602,-0.719 -0.224,-0.217 -0.436,-0.536 -0.474,-0.719 -0.041,-0.183 -0.062,-0.47 -0.045,-0.632 0.016,-0.166 0.078,-0.361 0.145,-0.43 0.062,-0.072 0.224,-0.208 0.357,-0.305 0.133,-0.091 0.362,-0.282 0.503,-0.415 0.145,-0.133 0.386,-0.424 0.544,-0.644 0.162,-0.224 0.444,-0.715 0.635,-1.091 0.187,-0.383 0.378,-0.912 0.416,-1.181 0.038,-0.271 0.066,-0.569 0.058,-0.66 -0.001,-0.012 0.004,-0.026 0.012,-0.039 -1.212,-2.573 -7.258,-5.023 -15.81,-5.023 v -1.246 h 33.318 v 0.623 0.623 c -7.287,0 -12.754,1.78 -14.961,3.899 0.068,-0.012 0.136,-0.022 0.199,-0.03 0.312,-0.042 0.802,-0.075 1.093,-0.075 0.295,0 0.651,0.059 0.806,0.133 0.149,0.071 0.328,0.191 0.402,0.27 0.071,0.081 0.167,0.208 0.212,0.288 0.05,0.083 0.055,0.204 0.017,0.273 -0.041,0.07 -0.196,0.158 -0.345,0.187 -0.149,0.029 -0.428,0.108 -0.619,0.174 -0.187,0.063 -0.482,0.15 -0.644,0.201 -0.166,0.048 -0.394,0.131 -0.503,0.186 -0.111,0.054 -0.273,0.153 -0.352,0.216 -0.083,0.062 -0.154,0.411 -0.154,0.776 v 1.841 c 0,0.645 -0.058,1.641 -0.133,2.21 -0.079,0.568 -0.162,1.517 -0.195,2.099 -0.033,0.585 -0.025,1.743 0.013,2.569 0.041,0.831 0.128,4.2 0.194,5.064 0.067,0.86 0.183,2.359 0.258,3.331 0.074,0.972 0.22,2.306 0.324,2.962 0.104,0.652 0.29,1.636 0.415,2.185 0.129,0.544 0.283,1.176 0.345,1.404 0.067,0.229 0.137,0.552 0.158,0.719 0.025,0.166 0.079,0.457 0.117,0.647 0.041,0.192 0.169,0.894 0.286,1.566 0.121,0.673 0.333,2.094 0.473,3.162 0.146,1.067 0.3,2.438 0.345,3.044 0.05,0.611 0.088,1.554 0.088,2.098 v 1.728 c 0.59,0.079 1.175,0.183 1.757,0.324 0.98,0.237 1.976,0.449 2.916,0.81 1.279,0.49 2.562,0.98 3.705,1.803 0.997,0.715 2.044,1.35 2.903,2.235 0.445,0.457 0.96,0.843 1.355,1.329 0,0 0.007,0.004 0.007,0.008 0.1,0.091 0.184,0.175 0.246,0.241 0.261,0.278 0.611,0.723 0.777,0.993 0.066,0.108 0.162,0.27 0.273,0.457 0.151,0.265 0.329,0.581 0.474,0.847 0.212,0.395 0.444,0.897 0.549,1.196 0,0 0.004,0.005 0.004,0.009 0.012,0.037 0.025,0.075 0.033,0.104 0.079,0.27 0.227,0.905 0.332,1.408 0.104,0.507 0.187,1.075 0.187,1.267 0,0.187 0.063,0.498 0.146,0.689 0.074,0.187 0.278,0.557 0.444,0.819 0.166,0.261 0.345,0.673 0.403,0.918 0.054,0.244 0.137,0.614 0.187,0.818 0.046,0.208 0.054,0.428 0.013,0.49" /></g><g
           transform="translate(70.878,30.8154)"
           id="g44"><path
             id="path46"
             style="fill:#B28C67;fill-opacity:1;fill-rule:nonzero;stroke:none"
             d="M 0,0 C -0.042,0.027 -0.07,0.062 -0.084,0.104 -0.098,0.146 -0.126,0.188 -0.167,0.23 L -0.23,0.167 C -0.259,0.111 -0.272,0.076 -0.272,0.062 c 0,-0.083 0.034,-0.124 0.105,-0.124 l 0.041,0.02 C -0.098,-0.015 -0.056,0 0,0 M 2.031,5.947 C 2.143,5.905 2.227,5.846 2.282,5.77 2.338,5.692 2.387,5.599 2.429,5.486 2.471,5.374 2.478,5.276 2.45,5.193 2.422,5.109 2.387,5.032 2.345,4.963 2.024,4.586 1.741,4.178 1.497,3.737 1.252,3.298 1.005,2.834 0.754,2.345 0.837,2.149 0.896,1.937 0.932,1.706 0.966,1.477 0.998,1.242 1.026,1.005 1.054,0.769 1.085,0.537 1.12,0.313 1.155,0.091 1.214,-0.112 1.298,-0.293 c 0.154,-0.099 0.304,-0.115 0.451,-0.053 0.146,0.063 0.296,0.117 0.45,0.159 0.712,0.152 1.385,0.344 2.02,0.574 0.635,0.23 1.288,0.478 1.958,0.744 0.726,0.32 1.341,0.655 1.843,1.005 0.503,0.348 0.991,0.774 1.466,1.277 0.447,0.517 0.733,1.02 0.859,1.508 0.125,0.488 0.118,0.942 -0.021,1.361 C 10.198,6.659 9.981,6.97 9.674,7.214 9.367,7.458 9.008,7.653 8.596,7.8 8.184,7.946 7.741,8.052 7.266,8.114 6.792,8.177 6.32,8.212 5.853,8.219 5.385,8.227 4.942,8.219 4.523,8.198 4.104,8.177 3.755,8.159 3.476,8.146 2.652,8.063 1.871,7.896 1.131,7.645 0.391,7.393 -0.335,7.028 -1.047,6.554 -1.201,6.471 -1.34,6.373 -1.466,6.261 -1.592,6.149 -1.717,6.044 -1.843,5.947 -2.024,5.793 -2.185,5.675 -2.325,5.591 -2.464,5.507 -2.601,5.458 -2.733,5.444 c -0.133,-0.012 -0.279,0.014 -0.44,0.084 -0.16,0.071 -0.345,0.181 -0.555,0.335 0.028,0.084 0.063,0.171 0.105,0.262 0.042,0.091 0.084,0.149 0.126,0.178 0.279,0.237 0.558,0.468 0.837,0.691 0.28,0.223 0.579,0.433 0.901,0.628 0.754,0.433 1.521,0.761 2.303,0.984 0.782,0.223 1.592,0.413 2.43,0.566 C 4.23,9.325 5.49,9.313 6.753,9.13 8.017,8.948 9.165,8.559 10.198,7.957 10.449,7.846 10.672,7.678 10.868,7.455 11.063,7.231 11.213,6.979 11.318,6.701 11.423,6.421 11.482,6.132 11.496,5.832 11.51,5.531 11.468,5.263 11.371,5.025 11.175,4.425 10.924,3.908 10.617,3.477 10.31,3.043 9.954,2.64 9.549,2.262 9.13,1.885 8.701,1.581 8.261,1.352 7.821,1.12 7.371,0.872 6.91,0.607 6.533,0.397 6.146,0.216 5.748,0.062 5.35,-0.091 4.952,-0.228 4.554,-0.346 4.157,-0.465 3.762,-0.573 3.371,-0.67 2.98,-0.769 2.589,-0.88 2.199,-1.006 2.073,-1.033 1.961,-1.051 1.864,-1.058 1.766,-1.064 1.661,-1.089 1.549,-1.131 c 0.238,-0.88 0.506,-1.647 0.806,-2.304 0.301,-0.656 0.702,-1.242 1.205,-1.757 0.349,-0.393 0.729,-0.747 1.141,-1.07 0.412,-0.321 0.841,-0.572 1.288,-0.754 1.633,-0.67 3.357,-0.823 5.172,-0.461 0.07,0 0.174,0.046 0.315,0.137 0.139,0.091 0.264,0.136 0.376,0.136 -0.07,-0.194 -0.146,-0.335 -0.23,-0.419 -0.28,-0.167 -0.555,-0.316 -0.827,-0.45 C 10.522,-8.205 10.226,-8.251 9.905,-8.209 9.416,-8.209 8.938,-8.212 8.47,-8.22 8.002,-8.227 7.531,-8.174 7.057,-8.063 4.642,-7.56 2.722,-6.052 1.298,-3.539 1.103,-3.218 0.932,-2.866 0.785,-2.48 0.639,-2.098 0.467,-1.688 0.272,-1.257 h -1.256 c -0.07,-0.167 -0.144,-0.314 -0.22,-0.439 -0.077,-0.126 -0.15,-0.266 -0.22,-0.419 -0.363,-0.712 -0.74,-1.409 -1.131,-2.094 -0.391,-0.685 -0.782,-1.383 -1.173,-2.095 l -0.063,-0.104 c -0.055,0 -0.101,-0.011 -0.136,-0.03 -0.034,-0.023 -0.073,-0.012 -0.115,0.03 0,0.055 -0.01,0.097 -0.031,0.126 -0.021,0.027 -0.01,0.062 0.031,0.104 0.07,0.239 0.129,0.464 0.178,0.681 0.049,0.216 0.073,0.443 0.073,0.682 0,0.068 0.014,0.141 0.042,0.218 0.028,0.076 0.056,0.129 0.084,0.159 0.196,0.236 0.325,0.504 0.388,0.804 0.063,0.301 0.171,0.576 0.324,0.827 0.126,0.239 0.245,0.496 0.356,0.776 0.112,0.279 0.23,0.557 0.356,0.838 -0.321,0.138 -0.617,0.297 -0.89,0.47 -0.272,0.175 -0.548,0.331 -0.827,0.471 -0.098,0.112 -0.182,0.273 -0.251,0.482 h 0.418 c 0.308,-0.084 0.601,-0.173 0.88,-0.272 0.279,-0.098 0.565,-0.187 0.859,-0.271 0.042,0 0.09,0.001 0.146,0.009 0.056,0.007 0.105,0.025 0.147,0.052 0.209,0.363 0.422,0.694 0.638,0.995 0.217,0.3 0.402,0.632 0.556,0.995 0.083,0.209 0.17,0.398 0.261,0.566 0.091,0.167 0.206,0.336 0.346,0.503 0.167,0.222 0.321,0.484 0.46,0.784 0.14,0.302 0.28,0.6 0.419,0.9 C 1.061,4.792 1.2,5.074 1.34,5.34 1.479,5.604 1.626,5.809 1.78,5.947 Z" /></g><g
           transform="translate(83.7979,31.0879)"
           id="g48"><path
             id="path50"
             style="fill:#B28C67;fill-opacity:1;fill-rule:nonzero;stroke:none"
             d="M 0,0 C 0,0.083 -0.035,0.125 -0.104,0.125 -0.161,0.098 -0.209,0.083 -0.251,0.083 -0.293,0.083 -0.335,0.069 -0.377,0.041 -0.489,0.015 -0.586,-0.024 -0.67,-0.074 -0.754,-0.123 -0.837,-0.182 -0.921,-0.252 -1.033,-0.336 -1.145,-0.434 -1.256,-0.545 -1.368,-0.657 -1.48,-0.769 -1.591,-0.88 -1.759,-1.075 -1.919,-1.281 -2.073,-1.498 -2.227,-1.715 -2.38,-1.927 -2.534,-2.137 V -2.22 c -0.014,-0.028 -0.017,-0.046 -0.01,-0.051 0.007,-0.007 0.01,-0.019 0.01,-0.033 h 0.147 c 0.042,0.042 0.084,0.075 0.126,0.094 0.041,0.022 0.083,0.053 0.125,0.095 0.181,0.153 0.363,0.31 0.545,0.47 0.181,0.162 0.356,0.318 0.523,0.472 0.153,0.139 0.304,0.277 0.45,0.408 0.147,0.133 0.29,0.269 0.43,0.41 0.042,0.042 0.076,0.08 0.105,0.114 0.027,0.034 0.055,0.088 0.083,0.157 0.014,0.027 0.018,0.045 0.011,0.052 C 0.003,-0.024 0,-0.015 0,0 m 0.021,-3.246 c -0.182,0 -0.356,0.027 -0.523,0.084 -0.029,0.015 -0.057,0.031 -0.084,0.053 -0.028,0.02 -0.056,0.037 -0.084,0.051 -0.125,0.155 -0.182,0.3 -0.167,0.44 0.013,0.084 0.034,0.16 0.063,0.23 0.027,0.071 0.034,0.133 0.02,0.189 0,0.055 -0.028,0.084 -0.083,0.084 -0.015,-0.015 -0.029,-0.022 -0.042,-0.022 -0.015,0 -0.029,-0.007 -0.042,-0.02 -0.098,-0.14 -0.196,-0.243 -0.293,-0.315 -0.07,-0.054 -0.133,-0.104 -0.189,-0.146 -0.056,-0.042 -0.118,-0.084 -0.188,-0.126 -0.07,-0.056 -0.137,-0.114 -0.199,-0.178 -0.063,-0.061 -0.136,-0.115 -0.22,-0.157 -0.307,-0.236 -0.67,-0.335 -1.089,-0.293 -0.111,0 -0.237,0.057 -0.377,0.168 -0.056,0.083 -0.105,0.146 -0.147,0.188 -0.097,0.125 -0.104,0.245 -0.021,0.356 0.042,0.097 0.081,0.195 0.116,0.293 0.035,0.097 0.052,0.202 0.052,0.314 0.042,0.14 0.084,0.224 0.125,0.251 0.071,0.114 0.141,0.21 0.21,0.294 0.07,0.083 0.154,0.167 0.251,0.251 0.07,0.07 0.14,0.143 0.21,0.22 0.07,0.076 0.139,0.15 0.209,0.221 0.042,0.054 0.091,0.103 0.147,0.145 0.055,0.042 0.111,0.098 0.167,0.168 0.07,0.056 0.129,0.111 0.178,0.167 0.049,0.056 0.102,0.112 0.157,0.168 0.21,0.224 0.433,0.377 0.671,0.461 l 0.565,0.251 c 0.042,0.028 0.09,0.045 0.147,0.054 0.055,0.006 0.111,0.015 0.167,0.03 0.084,0.042 0.174,0.042 0.272,0 H 0.042 C 0.126,0.586 0.22,0.559 0.325,0.544 0.43,0.53 0.531,0.517 0.628,0.502 0.768,0.475 0.862,0.422 0.911,0.345 0.96,0.27 0.97,0.182 0.942,0.083 0.942,-0.111 0.894,-0.308 0.796,-0.503 0.754,-0.615 0.705,-0.727 0.649,-0.838 0.593,-0.95 0.551,-1.062 0.524,-1.173 0.496,-1.243 0.468,-1.31 0.44,-1.372 0.412,-1.435 0.384,-1.501 0.356,-1.57 0.314,-1.683 0.272,-1.795 0.23,-1.906 0.188,-2.018 0.154,-2.123 0.126,-2.22 v -0.147 c 0,-0.014 0.014,-0.03 0.041,-0.052 0.028,-0.02 0.056,-0.031 0.084,-0.031 0.07,0 0.126,0.008 0.168,0.02 0.112,0.042 0.227,0.091 0.346,0.147 0.118,0.055 0.233,0.111 0.345,0.168 0.167,0.111 0.342,0.226 0.523,0.345 0.182,0.12 0.357,0.234 0.524,0.345 0.237,0.126 0.474,0.232 0.712,0.316 0.042,0.012 0.09,0.019 0.147,0.019 0.027,0 0.055,-0.014 0.084,-0.041 0.027,-0.028 0.041,-0.056 0.041,-0.084 L 3.016,-1.402 C 2.932,-1.486 2.848,-1.57 2.764,-1.655 2.681,-1.738 2.597,-1.814 2.513,-1.885 2.317,-2.011 2.136,-2.144 1.969,-2.283 1.801,-2.423 1.626,-2.556 1.445,-2.681 1.347,-2.751 1.243,-2.816 1.131,-2.88 1.019,-2.941 0.908,-3.009 0.796,-3.079 0.586,-3.189 0.328,-3.246 0.021,-3.246" /></g><g
           transform="translate(89.0752,30.543)"
           id="g52"><path
             id="path54"
             style="fill:#B28C67;fill-opacity:1;fill-rule:nonzero;stroke:none"
             d="m 0,0 c -0.056,0.027 -0.129,0.027 -0.22,0 -0.091,-0.027 -0.185,-0.062 -0.283,-0.104 -0.112,-0.057 -0.23,-0.125 -0.356,-0.209 0.279,-0.015 0.517,0.016 0.713,0.093 C 0.049,-0.144 0.097,-0.069 0,0 M 2.199,-1.34 C 2.352,-1.382 2.363,-1.494 2.23,-1.675 2.097,-1.855 1.933,-2.052 1.738,-2.262 1.542,-2.457 1.333,-2.656 1.11,-2.857 0.886,-3.061 0.635,-3.211 0.356,-3.309 0.174,-3.364 0,-3.398 -0.167,-3.413 c -0.168,-0.015 -0.343,0.015 -0.524,0.083 -0.098,0.016 -0.182,0.042 -0.251,0.084 -0.28,0.168 -0.479,0.356 -0.597,0.565 -0.119,0.21 -0.228,0.51 -0.325,0.902 -0.028,0.126 -0.077,0.213 -0.146,0.26 -0.071,0.049 -0.168,-0.024 -0.294,-0.218 l -0.062,-0.064 c -0.113,-0.222 -0.235,-0.458 -0.367,-0.702 -0.132,-0.244 -0.254,-0.476 -0.367,-0.701 -0.069,-0.11 -0.135,-0.231 -0.198,-0.356 -0.063,-0.126 -0.171,-0.203 -0.325,-0.23 -0.028,0 -0.056,-0.011 -0.084,-0.03 -0.027,-0.023 -0.055,-0.027 -0.084,-0.012 -0.069,0.027 -0.09,0.084 -0.062,0.167 0,0.042 0.007,0.084 0.02,0.126 0.071,0.069 0.105,0.146 0.105,0.23 0.015,0.155 0.042,0.293 0.084,0.419 0.042,0.125 0.098,0.244 0.168,0.356 0.041,0.07 0.08,0.143 0.115,0.221 0.035,0.077 0.073,0.149 0.115,0.219 0.07,0.113 0.129,0.227 0.178,0.345 0.049,0.119 0.094,0.241 0.136,0.367 0.028,0.042 0.042,0.087 0.042,0.136 0,0.049 0.014,0.108 0.042,0.179 0.042,0.153 0.077,0.257 0.105,0.313 0.028,0.056 0.104,0.168 0.23,0.335 0.028,0.042 0.049,0.084 0.063,0.126 0.013,0.042 0.034,0.076 0.063,0.106 0.195,0.571 0.422,1.147 0.68,1.726 0.258,0.579 0.527,1.162 0.807,1.749 0.278,0.586 0.547,1.176 0.806,1.771 0.258,0.591 0.485,1.188 0.68,1.79 C 0.628,7.001 0.67,7.147 0.712,7.287 0.754,7.427 0.81,7.566 0.879,7.706 0.921,7.79 0.984,7.843 1.068,7.863 1.151,7.884 1.235,7.881 1.319,7.854 1.403,7.824 1.476,7.772 1.539,7.695 1.602,7.619 1.633,7.519 1.633,7.393 1.633,7.352 1.623,7.31 1.602,7.268 1.581,7.226 1.563,7.184 1.549,7.142 1.466,6.917 1.382,6.715 1.298,6.533 1.214,6.353 1.124,6.156 1.026,5.947 0.928,5.696 0.82,5.444 0.701,5.193 0.583,4.942 0.467,4.697 0.356,4.46 0.188,4.042 -0.004,3.612 -0.22,3.173 -0.437,2.732 -0.643,2.305 -0.838,1.885 -0.921,1.717 -0.999,1.546 -1.068,1.372 -1.138,1.197 -1.208,1.02 -1.277,0.838 -1.292,0.796 -1.298,0.75 -1.298,0.701 c 0,-0.049 -0.008,-0.087 -0.021,-0.115 -0.014,-0.041 0,-0.08 0.042,-0.114 0.041,-0.035 0.076,-0.053 0.104,-0.053 h 0.126 c 0.153,0 0.328,0.031 0.524,0.095 C -0.328,0.576 -0.154,0.621 0,0.649 0.111,0.663 0.233,0.652 0.366,0.618 0.499,0.583 0.614,0.53 0.712,0.461 0.782,0.419 0.823,0.356 0.837,0.272 0.851,0.188 0.872,0.111 0.9,0.042 0.928,-0.111 0.865,-0.248 0.712,-0.366 0.558,-0.484 0.373,-0.59 0.157,-0.681 -0.06,-0.771 -0.272,-0.852 -0.482,-0.922 -0.691,-0.991 -0.838,-1.055 -0.921,-1.109 l -0.084,-0.083 c 0,-0.198 0.017,-0.424 0.052,-0.682 0.035,-0.259 0.108,-0.484 0.22,-0.681 0.056,-0.138 0.147,-0.21 0.272,-0.21 0.21,0 0.412,0.039 0.607,0.117 0.196,0.076 0.388,0.173 0.576,0.294 0.189,0.118 0.374,0.244 0.555,0.375 0.181,0.132 0.363,0.254 0.545,0.368 0.07,0.026 0.132,0.075 0.188,0.145 0.056,0.07 0.118,0.112 0.189,0.126" /></g><g
           transform="translate(92.5093,32.1973)"
           id="g56"><path
             id="path58"
             style="fill:#B28C67;fill-opacity:1;fill-rule:nonzero;stroke:none"
             d="m 0,0 c 0.014,0.027 0.021,0.061 0.021,0.094 0,0.035 0.007,0.066 0.021,0.094 C 0.069,0.3 0.104,0.397 0.146,0.481 L 0.272,0.733 C 0.286,0.761 0.304,0.781 0.324,0.796 0.345,0.811 0.37,0.83 0.398,0.858 0.635,0.93 0.83,0.888 0.984,0.733 1.11,0.607 1.131,0.495 1.047,0.397 0.991,0.244 0.886,0.091 0.733,-0.062 0.621,-0.187 0.467,-0.266 0.272,-0.293 0.244,-0.293 0.223,-0.29 0.209,-0.282 0.195,-0.274 0.181,-0.271 0.167,-0.271 0.069,-0.244 0.021,-0.194 0.021,-0.126 0.021,-0.084 0.014,-0.042 0,0 m -1.822,-3.623 c 0.028,0.084 0.048,0.15 0.062,0.199 0.013,0.049 0.034,0.087 0.061,0.115 0.11,0.335 0.274,0.661 0.493,0.974 0.219,0.314 0.377,0.576 0.473,0.785 0.028,0.056 0.049,0.113 0.063,0.168 0.014,0.056 0.034,0.118 0.063,0.19 0.027,0.068 0.059,0.137 0.094,0.209 0.034,0.069 0.08,0.126 0.136,0.168 0.028,0.068 0.063,0.11 0.105,0.125 0.042,0.012 0.097,0.027 0.167,0.042 h 0.063 C 0.125,-0.636 0.251,-0.719 0.335,-0.899 0.377,-0.941 0.384,-1.013 0.356,-1.108 0.3,-1.222 0.258,-1.291 0.23,-1.318 c -0.126,-0.197 -0.248,-0.37 -0.366,-0.525 -0.119,-0.153 -0.227,-0.335 -0.325,-0.545 -0.07,-0.111 -0.146,-0.251 -0.229,-0.418 -0.083,-0.168 -0.153,-0.306 -0.207,-0.419 -0.028,-0.028 -0.059,-0.097 -0.093,-0.21 -0.034,-0.111 -0.052,-0.188 -0.052,-0.23 -0.013,-0.026 0.007,-0.049 0.062,-0.063 0.055,-0.013 0.096,-0.02 0.124,-0.02 0.124,0.015 0.28,0.057 0.468,0.125 0.189,0.07 0.391,0.15 0.608,0.241 0.216,0.091 0.436,0.195 0.659,0.316 0.224,0.117 0.44,0.239 0.649,0.365 0.126,0.055 0.238,0.111 0.336,0.167 0.097,0.055 0.209,0.092 0.335,0.105 0.028,-0.013 0.042,-0.05 0.042,-0.105 V -2.597 C 2.199,-2.667 2.143,-2.726 2.073,-2.773 2.003,-2.824 1.933,-2.876 1.864,-2.932 1.71,-3.058 1.511,-3.204 1.267,-3.371 1.022,-3.539 0.771,-3.703 0.513,-3.862 0.254,-4.023 0.003,-4.171 -0.241,-4.304 -0.485,-4.437 -0.684,-4.529 -0.836,-4.586 -0.987,-4.656 -1.151,-4.67 -1.329,-4.628 l -0.185,0.064 c -0.178,0.084 -0.288,0.222 -0.329,0.418 -0.028,0.042 -0.034,0.07 -0.021,0.084 0.014,0.013 0.014,0.041 0,0.083 0,0.112 0.008,0.196 0.021,0.251 0,0.029 0.007,0.056 0.021,0.084 0.014,0.028 0.014,0.036 0,0.021" /></g><g
           transform="translate(97.5347,31.0879)"
           id="g60"><path
             id="path62"
             style="fill:#B28C67;fill-opacity:1;fill-rule:nonzero;stroke:none"
             d="M 0,0 C 0,0.083 -0.035,0.125 -0.104,0.125 -0.161,0.098 -0.209,0.083 -0.251,0.083 -0.293,0.083 -0.335,0.069 -0.377,0.041 -0.489,0.015 -0.586,-0.024 -0.67,-0.074 -0.754,-0.123 -0.837,-0.182 -0.921,-0.252 -1.033,-0.336 -1.145,-0.434 -1.256,-0.545 -1.368,-0.657 -1.48,-0.769 -1.591,-0.88 -1.759,-1.075 -1.919,-1.281 -2.073,-1.498 -2.227,-1.715 -2.38,-1.927 -2.534,-2.137 V -2.22 c -0.014,-0.028 -0.017,-0.046 -0.01,-0.051 0.007,-0.007 0.01,-0.019 0.01,-0.033 h 0.147 c 0.042,0.042 0.084,0.075 0.126,0.094 0.041,0.022 0.083,0.053 0.125,0.095 0.181,0.153 0.363,0.31 0.545,0.47 0.181,0.162 0.356,0.318 0.523,0.472 0.153,0.139 0.304,0.277 0.45,0.408 0.147,0.133 0.29,0.269 0.43,0.41 0.042,0.042 0.076,0.08 0.105,0.114 0.027,0.034 0.055,0.088 0.083,0.157 0.014,0.027 0.018,0.045 0.011,0.052 C 0.003,-0.024 0,-0.015 0,0 m 0.021,-3.246 c -0.182,0 -0.356,0.027 -0.523,0.084 -0.029,0.015 -0.057,0.031 -0.084,0.053 -0.028,0.02 -0.056,0.037 -0.084,0.051 -0.125,0.155 -0.182,0.3 -0.167,0.44 0.013,0.084 0.034,0.16 0.063,0.23 0.027,0.071 0.034,0.133 0.02,0.189 0,0.055 -0.028,0.084 -0.083,0.084 -0.015,-0.015 -0.029,-0.022 -0.042,-0.022 -0.015,0 -0.029,-0.007 -0.042,-0.02 -0.098,-0.14 -0.196,-0.243 -0.293,-0.315 -0.07,-0.054 -0.133,-0.104 -0.189,-0.146 -0.056,-0.042 -0.118,-0.084 -0.188,-0.126 -0.07,-0.056 -0.137,-0.114 -0.199,-0.178 -0.063,-0.061 -0.136,-0.115 -0.22,-0.157 -0.307,-0.236 -0.67,-0.335 -1.089,-0.293 -0.111,0 -0.237,0.057 -0.377,0.168 -0.056,0.083 -0.105,0.146 -0.147,0.188 -0.097,0.125 -0.104,0.245 -0.021,0.356 0.042,0.097 0.081,0.195 0.116,0.293 0.035,0.097 0.052,0.202 0.052,0.314 0.042,0.14 0.084,0.224 0.125,0.251 0.071,0.114 0.141,0.21 0.21,0.294 0.07,0.083 0.154,0.167 0.251,0.251 0.07,0.07 0.14,0.143 0.21,0.22 0.07,0.076 0.139,0.15 0.209,0.221 0.042,0.054 0.091,0.103 0.147,0.145 0.055,0.042 0.111,0.098 0.167,0.168 0.07,0.056 0.129,0.111 0.178,0.167 0.049,0.056 0.102,0.112 0.157,0.168 0.21,0.224 0.433,0.377 0.671,0.461 l 0.565,0.251 c 0.042,0.028 0.09,0.045 0.147,0.054 0.055,0.006 0.111,0.015 0.167,0.03 0.084,0.042 0.174,0.042 0.272,0 H 0.042 C 0.126,0.586 0.22,0.559 0.325,0.544 0.43,0.53 0.531,0.517 0.628,0.502 0.768,0.475 0.862,0.422 0.911,0.345 0.96,0.27 0.97,0.182 0.942,0.083 0.942,-0.111 0.894,-0.308 0.796,-0.503 0.754,-0.615 0.705,-0.727 0.649,-0.838 0.593,-0.95 0.551,-1.062 0.524,-1.173 0.496,-1.243 0.468,-1.31 0.44,-1.372 0.412,-1.435 0.384,-1.501 0.356,-1.57 0.314,-1.683 0.272,-1.795 0.23,-1.906 0.188,-2.018 0.154,-2.123 0.126,-2.22 v -0.147 c 0,-0.014 0.014,-0.03 0.041,-0.052 0.028,-0.02 0.056,-0.031 0.084,-0.031 0.07,0 0.126,0.008 0.168,0.02 0.112,0.042 0.227,0.091 0.346,0.147 0.118,0.055 0.233,0.111 0.345,0.168 0.167,0.111 0.342,0.226 0.523,0.345 0.182,0.12 0.357,0.234 0.524,0.345 0.237,0.126 0.474,0.232 0.712,0.316 0.042,0.012 0.09,0.019 0.147,0.019 0.027,0 0.055,-0.014 0.084,-0.041 0.027,-0.028 0.041,-0.056 0.041,-0.084 L 3.016,-1.402 C 2.932,-1.486 2.848,-1.57 2.764,-1.655 2.681,-1.738 2.597,-1.814 2.513,-1.885 2.317,-2.011 2.136,-2.144 1.969,-2.283 1.801,-2.423 1.626,-2.556 1.445,-2.681 1.347,-2.751 1.243,-2.816 1.131,-2.88 1.019,-2.941 0.908,-3.009 0.796,-3.079 0.586,-3.189 0.328,-3.246 0.021,-3.246" /></g><g
           transform="translate(102.6983,29.5293)"
           id="g64"><path
             id="path66"
             style="fill:#B28C67;fill-opacity:1;fill-rule:nonzero;stroke:none"
             d="m 0,0 c 0.03,0.05 0.07,0.098 0.12,0.143 0.049,0.044 0.099,0.09 0.149,0.14 0.05,0.04 0.095,0.09 0.134,0.151 0.11,0.08 0.215,0.17 0.314,0.275 0.1,0.104 0.189,0.212 0.269,0.321 v 0.032 c 0,0.028 0.005,0.053 0.015,0.073 L 0.986,1.15 C 0.976,1.15 0.969,1.152 0.964,1.157 0.958,1.162 0.951,1.165 0.941,1.165 0.702,1.195 0.463,1.17 0.224,1.09 0.084,1.021 -0.052,0.943 -0.187,0.858 -0.321,0.774 -0.458,0.687 -0.598,0.599 V 0.53 c 0,-0.025 0.01,-0.048 0.03,-0.067 0.09,-0.021 0.159,-0.06 0.21,-0.12 0.049,-0.06 0.099,-0.124 0.149,-0.194 0.02,-0.02 0.052,-0.043 0.097,-0.067 C -0.067,0.058 -0.03,0.029 0,0 m -0.209,-0.896 c -0.06,-0.051 -0.117,-0.098 -0.172,-0.143 -0.055,-0.045 -0.107,-0.092 -0.157,-0.142 -0.169,-0.109 -0.321,-0.236 -0.456,-0.381 -0.134,-0.144 -0.266,-0.295 -0.396,-0.456 -0.049,-0.08 -0.104,-0.159 -0.164,-0.239 -0.059,-0.079 -0.114,-0.164 -0.164,-0.254 -0.02,-0.019 -0.032,-0.045 -0.037,-0.074 -0.006,-0.03 -0.013,-0.06 -0.023,-0.09 -0.02,-0.03 -0.017,-0.061 0.007,-0.096 0.025,-0.036 0.048,-0.042 0.068,-0.023 0.109,0.029 0.206,0.065 0.291,0.106 0.085,0.039 0.177,0.079 0.277,0.119 0.229,0.138 0.44,0.273 0.635,0.402 0.194,0.13 0.405,0.265 0.635,0.403 0.019,0.021 0.034,0.032 0.044,0.032 0.01,0 0.025,0.008 0.045,0.028 0.03,0.03 0.045,0.085 0.045,0.165 -0.05,0.09 -0.112,0.186 -0.187,0.291 -0.075,0.104 -0.137,0.196 -0.186,0.276 0,0.02 -0.011,0.034 -0.03,0.037 -0.02,0.005 -0.045,0.018 -0.075,0.039 M 1.136,-1.941 C 1.245,-2.212 1.39,-2.456 1.569,-2.675 1.748,-2.894 1.927,-3.104 2.107,-3.303 2.077,-3.361 2.052,-3.404 2.032,-3.43 2.012,-3.454 1.992,-3.485 1.972,-3.525 H 1.868 c -0.15,0.048 -0.264,0.124 -0.344,0.222 -0.05,0.032 -0.095,0.072 -0.134,0.12 -0.04,0.05 -0.085,0.105 -0.135,0.164 -0.08,0.1 -0.162,0.209 -0.246,0.331 -0.085,0.119 -0.167,0.238 -0.247,0.357 -0.01,0.019 -0.03,0.037 -0.06,0.052 -0.03,0.015 -0.055,0.032 -0.075,0.052 C 0.518,-2.275 0.411,-2.341 0.306,-2.421 0.202,-2.501 0.109,-2.564 0.03,-2.615 c -0.11,-0.06 -0.215,-0.127 -0.314,-0.2 -0.099,-0.077 -0.204,-0.144 -0.314,-0.204 -0.109,-0.08 -0.231,-0.144 -0.365,-0.194 -0.135,-0.05 -0.267,-0.095 -0.396,-0.134 -0.2,-0.049 -0.379,-0.043 -0.538,0.023 -0.16,0.064 -0.309,0.166 -0.449,0.305 -0.04,0.031 -0.065,0.06 -0.074,0.09 -0.01,0.032 -0.025,0.055 -0.045,0.075 -0.05,0.139 -0.055,0.271 -0.015,0.396 0.04,0.124 0.099,0.251 0.179,0.381 0.1,0.119 0.189,0.231 0.269,0.336 0.08,0.104 0.174,0.212 0.284,0.321 0.169,0.159 0.336,0.31 0.5,0.448 0.165,0.14 0.342,0.275 0.531,0.405 0.11,0.079 0.169,0.153 0.179,0.223 0.01,0.071 -0.02,0.164 -0.089,0.283 -0.05,0.082 -0.105,0.153 -0.165,0.217 -0.06,0.065 -0.114,0.132 -0.164,0.202 -0.09,0.039 -0.174,0.07 -0.254,0.09 -0.08,0.02 -0.155,0.039 -0.224,0.06 -0.02,0.051 -0.023,0.096 -0.008,0.141 0.015,0.045 0.043,0.079 0.083,0.098 0.149,0.069 0.288,0.159 0.418,0.27 0.129,0.108 0.254,0.209 0.373,0.297 0.15,0.1 0.304,0.182 0.464,0.248 0.159,0.064 0.323,0.096 0.493,0.096 0.159,0.02 0.316,0.015 0.47,-0.013 C 1.014,1.613 1.17,1.578 1.33,1.538 1.459,1.52 1.566,1.475 1.651,1.404 1.735,1.334 1.813,1.255 1.883,1.165 1.893,1.115 1.897,1.057 1.897,0.985 1.857,0.886 1.823,0.808 1.793,0.747 1.713,0.637 1.626,0.535 1.532,0.44 1.437,0.346 1.325,0.259 1.195,0.179 1.056,0.069 0.921,-0.035 0.792,-0.135 0.663,-0.233 0.528,-0.339 0.389,-0.448 0.349,-0.469 0.324,-0.485 0.314,-0.501 c -0.01,-0.015 -0.03,-0.037 -0.06,-0.066 0.079,-0.13 0.157,-0.249 0.232,-0.36 0.075,-0.109 0.151,-0.229 0.231,-0.358 0.03,-0.05 0.062,-0.08 0.097,-0.09 0.035,-0.01 0.082,-0.005 0.142,0.016 0.05,0.04 0.095,0.069 0.135,0.088 0.039,0.02 0.075,0.05 0.104,0.09 0.11,0.05 0.207,0.105 0.292,0.164 0.084,0.06 0.181,0.116 0.291,0.165 0.03,0 0.062,0.01 0.097,0.03 0.035,0.019 0.072,0.04 0.112,0.059 0.08,0.04 0.155,0.076 0.224,0.105 0.07,0.03 0.13,0.065 0.18,0.105 0.02,0 0.045,-0.011 0.074,-0.038 C 2.495,-0.615 2.5,-0.638 2.48,-0.658 2.46,-0.758 2.428,-0.856 2.383,-0.957 2.338,-1.057 2.271,-1.131 2.182,-1.181 2.062,-1.271 1.94,-1.348 1.815,-1.412 1.691,-1.478 1.563,-1.55 1.435,-1.629 1.375,-1.679 1.32,-1.726 1.27,-1.771 1.22,-1.814 1.175,-1.873 1.136,-1.941" /></g><g
           transform="translate(106.6978,29.9775)"
           id="g68"><path
             id="path70"
             style="fill:#B28C67;fill-opacity:1;fill-rule:nonzero;stroke:none"
             d="M 0,0 C 0.028,0.153 0.073,0.297 0.136,0.43 0.199,0.562 0.251,0.705 0.293,0.858 0.377,1.096 0.478,1.333 0.597,1.57 0.715,1.809 0.831,2.045 0.942,2.282 1.012,2.437 1.092,2.576 1.183,2.701 1.274,2.827 1.34,2.967 1.382,3.12 1.452,3.315 1.532,3.511 1.623,3.706 1.714,3.902 1.815,4.099 1.927,4.293 2.248,4.894 2.541,5.477 2.806,6.041 3.071,6.606 3.364,7.176 3.686,7.748 3.755,7.874 3.822,7.981 3.885,8.072 3.947,8.163 4,8.243 4.042,8.313 4.083,8.439 4.125,8.547 4.167,8.638 4.209,8.729 4.251,8.83 4.293,8.941 4.391,8.886 4.502,8.83 4.628,8.774 4.754,8.718 4.855,8.648 4.932,8.564 5.008,8.481 5.05,8.387 5.057,8.282 5.064,8.178 5.012,8.041 4.9,7.874 4.858,7.748 4.813,7.646 4.764,7.57 4.715,7.493 4.649,7.413 4.565,7.329 4.453,7.12 4.356,6.938 4.272,6.785 4.188,6.631 4.111,6.481 4.042,6.335 3.972,6.188 3.892,6.034 3.801,5.874 3.71,5.713 3.602,5.528 3.476,5.319 3.323,5.039 3.152,4.701 2.963,4.304 2.775,3.905 2.625,3.546 2.513,3.226 2.094,2.359 1.696,1.501 1.319,0.649 1.082,-0.062 0.824,-0.82 0.544,-1.623 0.265,-2.426 0.049,-3.197 -0.104,-3.937 -0.216,-4.438 -0.3,-4.852 -0.356,-5.172 -0.412,-5.494 -0.454,-5.77 -0.481,-6 -0.51,-6.229 -0.527,-6.438 -0.534,-6.628 c -0.007,-0.187 -0.01,-0.408 -0.01,-0.659 0,-0.056 0.076,-0.087 0.23,-0.095 0.153,-0.007 0.325,0.004 0.513,0.031 0.189,0.029 0.37,0.064 0.545,0.106 0.174,0.042 0.282,0.091 0.324,0.146 0.265,0.265 0.541,0.532 0.828,0.796 0.285,0.265 0.568,0.579 0.847,0.944 0.237,0.319 0.482,0.675 0.733,1.066 0.252,0.392 0.475,0.74 0.67,1.047 0.349,0.6 0.656,1.228 0.922,1.886 0.265,0.655 0.558,1.298 0.879,1.925 0.126,0.238 0.252,0.51 0.377,0.817 0.126,0.307 0.252,0.579 0.377,0.817 0.153,0.238 0.244,0.46 0.273,0.67 0.027,0.209 0.097,0.433 0.209,0.67 0.209,0.391 0.366,0.792 0.471,1.204 0.105,0.411 0.213,0.82 0.325,1.225 0.042,0.112 0.086,0.227 0.136,0.345 0.049,0.12 0.108,0.234 0.177,0.346 0,0.042 0.035,0.08 0.105,0.115 C 8.468,6.81 8.544,6.827 8.628,6.827 8.781,6.785 8.914,6.715 9.025,6.617 9.138,6.521 9.229,6.408 9.298,6.282 9.34,6.087 9.347,5.908 9.319,5.748 9.291,5.588 9.256,5.424 9.214,5.256 9.145,4.978 9.085,4.719 9.036,4.481 8.987,4.244 8.928,4.007 8.858,3.771 8.704,3.184 8.548,2.61 8.387,2.052 8.226,1.494 8.09,0.914 7.979,0.314 7.867,-0.271 7.772,-0.857 7.696,-1.445 7.619,-2.031 7.56,-2.625 7.518,-3.225 7.476,-3.574 7.486,-3.976 7.549,-4.429 c 0.063,-0.454 0.129,-0.862 0.199,-1.225 0,-0.042 0.018,-0.101 0.053,-0.178 0.034,-0.076 0.073,-0.148 0.115,-0.22 0.027,-0.042 0.076,-0.077 0.147,-0.104 0.069,-0.029 0.118,-0.022 0.146,0.02 0.083,0 0.167,0.018 0.252,0.053 0.083,0.035 0.167,0.073 0.251,0.115 0.251,0.239 0.541,0.54 0.869,0.91 0.327,0.371 0.568,0.737 0.723,1.1 0.153,0.308 0.309,0.602 0.47,0.88 0.161,0.279 0.297,0.579 0.409,0.9 0.321,0.586 0.576,1.187 0.764,1.801 0.189,0.614 0.402,1.235 0.639,1.863 0.027,0.224 0.062,0.441 0.104,0.65 0.042,0.21 0.119,0.412 0.231,0.607 0.027,0.111 0.062,0.244 0.104,0.4 0.042,0.152 0.084,0.284 0.126,0.396 0.041,0.293 0.096,0.548 0.164,0.765 0.069,0.217 0.13,0.423 0.185,0.617 0.055,0.195 0.104,0.389 0.144,0.576 0.041,0.19 0.061,0.401 0.061,0.639 0,0.237 0.021,0.457 0.062,0.659 0.041,0.202 0.095,0.423 0.164,0.66 0.15,0.391 0.225,0.781 0.225,1.173 0,0.237 0.038,0.457 0.115,0.659 0.077,0.202 0.116,0.396 0.116,0.576 0.111,0.042 0.202,0.084 0.272,0.125 0.07,0.042 0.16,0.084 0.272,0.126 V 9.025 c 0,-0.084 -0.01,-0.167 -0.032,-0.251 C 14.879,8.69 14.868,8.593 14.868,8.481 14.826,7.839 14.729,7.207 14.575,6.586 14.421,5.965 14.31,5.333 14.24,4.69 14.199,4.579 14.161,4.464 14.127,4.345 14.093,4.228 14.076,4.111 14.076,4 13.925,3.455 13.788,2.921 13.665,2.397 13.542,1.874 13.425,1.361 13.315,0.858 13.149,0.342 12.983,-0.164 12.816,-0.659 c -0.168,-0.496 -0.37,-0.982 -0.607,-1.456 -0.154,-0.364 -0.311,-0.733 -0.472,-1.11 -0.16,-0.377 -0.338,-0.76 -0.533,-1.152 -0.126,-0.279 -0.276,-0.544 -0.45,-0.795 C 10.579,-5.424 10.415,-5.687 10.262,-5.968 10.107,-6.19 9.901,-6.369 9.644,-6.502 9.385,-6.635 9.123,-6.764 8.858,-6.89 8.663,-6.974 8.464,-7.001 8.261,-6.974 8.059,-6.945 7.86,-6.89 7.665,-6.806 7.511,-6.692 7.406,-6.593 7.351,-6.502 7.294,-6.411 7.19,-6.31 7.036,-6.198 6.953,-6.17 6.9,-6.118 6.879,-6.041 c -0.021,0.076 -0.046,0.156 -0.073,0.24 -0.084,0.419 -0.157,0.869 -0.22,1.351 -0.063,0.481 -0.105,0.973 -0.126,1.476 -0.021,0.503 -0.01,1.005 0.032,1.508 0.042,0.503 0.125,0.977 0.251,1.424 -0.028,0 -0.08,-0.065 -0.157,-0.199 C 6.509,-0.374 6.429,-0.522 6.345,-0.69 6.261,-0.857 6.181,-1.02 6.104,-1.173 6.027,-1.326 5.982,-1.424 5.968,-1.466 5.647,-2.107 5.309,-2.726 4.953,-3.318 4.597,-3.913 4.223,-4.502 3.833,-5.089 3.553,-5.535 3.27,-5.961 2.984,-6.366 2.698,-6.771 2.374,-7.154 2.01,-7.518 1.815,-7.671 1.644,-7.775 1.498,-7.832 1.351,-7.888 1.166,-7.957 0.942,-8.041 0.705,-8.11 0.485,-8.132 0.283,-8.104 c -0.203,0.028 -0.402,0.078 -0.597,0.147 -0.125,0.041 -0.234,0.099 -0.325,0.167 -0.09,0.07 -0.192,0.126 -0.303,0.168 -0.266,0.153 -0.398,0.384 -0.398,0.69 -0.112,0.252 -0.175,0.507 -0.188,0.765 -0.014,0.259 0,0.518 0.041,0.774 0.042,0.259 0.098,0.521 0.168,0.787 0.07,0.264 0.139,0.523 0.209,0.774 0.042,0.069 0.067,0.133 0.073,0.188 0.007,0.056 0.011,0.12 0.011,0.189 0.07,0.488 0.189,0.967 0.356,1.434 0.168,0.468 0.307,0.932 0.419,1.393 0.042,0.083 0.084,0.19 0.126,0.315 C -0.083,-0.187 -0.042,-0.084 0,0" /></g><g
           transform="translate(122.3824,32.1973)"
           id="g72"><path
             id="path74"
             style="fill:#B28C67;fill-opacity:1;fill-rule:nonzero;stroke:none"
             d="m 0,0 c 0.014,0.027 0.021,0.061 0.021,0.094 0,0.035 0.007,0.066 0.021,0.094 C 0.069,0.3 0.104,0.397 0.146,0.481 L 0.271,0.733 C 0.286,0.761 0.304,0.781 0.324,0.796 0.346,0.811 0.37,0.83 0.397,0.858 0.635,0.93 0.83,0.888 0.984,0.733 1.11,0.607 1.131,0.495 1.047,0.397 0.991,0.244 0.887,0.091 0.733,-0.062 0.621,-0.187 0.468,-0.266 0.271,-0.293 0.244,-0.293 0.224,-0.29 0.21,-0.282 0.195,-0.274 0.182,-0.271 0.168,-0.271 0.069,-0.244 0.021,-0.194 0.021,-0.126 0.021,-0.084 0.014,-0.042 0,0 m -1.821,-3.623 c 0.027,0.084 0.048,0.15 0.061,0.199 0.014,0.049 0.034,0.087 0.062,0.115 0.109,0.335 0.273,0.661 0.492,0.974 0.22,0.314 0.377,0.576 0.474,0.785 0.027,0.056 0.048,0.113 0.062,0.168 0.014,0.056 0.034,0.118 0.063,0.19 0.028,0.068 0.059,0.137 0.094,0.209 0.034,0.069 0.08,0.126 0.136,0.168 0.028,0.068 0.063,0.11 0.105,0.125 0.042,0.012 0.097,0.027 0.168,0.042 h 0.062 C 0.126,-0.636 0.251,-0.719 0.335,-0.899 0.377,-0.941 0.384,-1.013 0.356,-1.108 0.3,-1.222 0.258,-1.291 0.229,-1.318 0.104,-1.515 -0.018,-1.688 -0.136,-1.843 -0.255,-1.996 -0.363,-2.178 -0.461,-2.388 -0.53,-2.499 -0.607,-2.639 -0.69,-2.806 c -0.083,-0.168 -0.153,-0.306 -0.207,-0.419 -0.028,-0.028 -0.059,-0.097 -0.093,-0.21 -0.034,-0.111 -0.051,-0.188 -0.051,-0.23 -0.014,-0.026 0.007,-0.049 0.062,-0.063 0.054,-0.013 0.095,-0.02 0.123,-0.02 0.124,0.015 0.28,0.057 0.468,0.125 0.189,0.07 0.391,0.15 0.608,0.241 0.217,0.091 0.436,0.195 0.66,0.316 0.223,0.117 0.439,0.239 0.648,0.365 0.126,0.055 0.238,0.111 0.336,0.167 0.097,0.055 0.209,0.092 0.335,0.105 0.028,-0.013 0.042,-0.05 0.042,-0.105 V -2.597 C 2.199,-2.667 2.143,-2.726 2.073,-2.773 2.003,-2.824 1.934,-2.876 1.864,-2.932 1.71,-3.058 1.511,-3.204 1.267,-3.371 1.021,-3.539 0.771,-3.703 0.513,-3.862 0.255,-4.023 0.003,-4.171 -0.24,-4.304 -0.485,-4.437 -0.684,-4.529 -0.836,-4.586 -0.986,-4.656 -1.151,-4.67 -1.329,-4.628 l -0.185,0.064 c -0.178,0.084 -0.288,0.222 -0.329,0.418 -0.027,0.042 -0.034,0.07 -0.021,0.084 0.014,0.013 0.014,0.041 0.001,0.083 0,0.112 0.007,0.196 0.02,0.251 0,0.029 0.007,0.056 0.022,0.084 0.013,0.028 0.013,0.036 0,0.021" /></g><g
           transform="translate(126.3609,28.1143)"
           id="g76"><path
             id="path78"
             style="fill:#B28C67;fill-opacity:1;fill-rule:nonzero;stroke:none"
             d="m 0,0 c 0.153,0.098 0.311,0.195 0.472,0.293 0.16,0.099 0.31,0.209 0.45,0.335 0.167,0.126 0.352,0.24 0.555,0.347 0.202,0.103 0.394,0.218 0.576,0.343 0.055,0.03 0.115,0.06 0.176,0.095 C 2.293,1.447 2.359,1.479 2.43,1.507 2.499,1.535 2.562,1.562 2.618,1.591 2.674,1.619 2.743,1.646 2.827,1.675 2.883,1.688 2.895,1.668 2.869,1.612 2.883,1.57 2.883,1.535 2.869,1.507 2.854,1.479 2.841,1.444 2.827,1.402 L 2.388,1.067 C 2.346,1.039 2.3,1.008 2.251,0.975 2.202,0.938 2.157,0.907 2.115,0.879 L 1.319,0.125 C 1.152,-0.027 0.979,-0.182 0.807,-0.336 0.632,-0.489 0.447,-0.643 0.252,-0.796 0.182,-0.838 0.115,-0.887 0.053,-0.941 -0.01,-0.999 -0.076,-1.055 -0.146,-1.109 c -0.056,-0.042 -0.109,-0.084 -0.158,-0.126 -0.05,-0.041 -0.087,-0.071 -0.115,-0.083 -0.195,-0.072 -0.349,-0.058 -0.46,0.042 l -0.105,0.083 c -0.098,0.126 -0.162,0.215 -0.189,0.271 -0.027,0.056 -0.02,0.182 0.022,0.377 l 0.084,0.358 c 0.069,0.194 0.13,0.382 0.188,0.564 0.056,0.182 0.125,0.369 0.209,0.564 l 0.189,0.525 0.042,0.209 c 0,0.055 -0.029,0.097 -0.084,0.126 -0.042,0 -0.078,-0.008 -0.105,-0.022 L -1.131,1.277 C -1.214,1.18 -1.309,1.092 -1.413,1.017 -1.518,0.938 -1.626,0.886 -1.738,0.858 -1.779,0.83 -1.814,0.81 -1.843,0.795 -1.871,0.781 -1.898,0.754 -1.927,0.712 -1.968,0.628 -2.065,0.551 -2.22,0.481 L -2.366,0.418 C -2.492,0.362 -2.582,0.404 -2.639,0.544 -2.694,0.628 -2.708,0.732 -2.68,0.858 c 0.056,0.113 0.101,0.216 0.136,0.314 0.035,0.099 0.073,0.195 0.115,0.294 0.071,0.111 0.133,0.229 0.189,0.355 0.055,0.126 0.104,0.258 0.146,0.4 0.029,0.11 0.07,0.209 0.126,0.293 0.041,0.125 0.09,0.251 0.147,0.377 0.055,0.125 0.104,0.256 0.146,0.396 0.028,0.084 0.059,0.16 0.094,0.232 0.035,0.068 0.066,0.138 0.095,0.209 0.027,0.069 0.09,0.104 0.188,0.104 h 0.209 c 0.042,0 0.087,-0.004 0.137,-0.011 0.049,-0.007 0.087,-0.031 0.115,-0.073 0.125,-0.098 0.174,-0.21 0.147,-0.335 0,-0.07 -0.015,-0.137 -0.042,-0.199 -0.029,-0.063 -0.042,-0.129 -0.042,-0.198 0.013,-0.029 0.042,-0.041 0.084,-0.041 0.042,0 0.076,0.005 0.104,0.019 0.111,0.111 0.232,0.209 0.366,0.293 0.133,0.084 0.255,0.183 0.366,0.293 0.14,0.099 0.315,0.148 0.524,0.148 0.154,0 0.266,-0.041 0.336,-0.125 C 1.02,3.573 1.033,3.549 1.047,3.528 1.061,3.507 1.068,3.482 1.068,3.455 1.11,3.371 1.124,3.315 1.11,3.287 1.082,3.176 1.054,3.085 1.026,3.016 L 0.293,1.424 -0.084,0.46 C -0.153,0.293 -0.175,0.153 -0.146,0.041 c 0,-0.041 0.021,-0.062 0.062,-0.062 h 0.042 v -0.021 z" /></g><g
           transform="translate(130.6753,30.543)"
           id="g80"><path
             id="path82"
             style="fill:#B28C67;fill-opacity:1;fill-rule:nonzero;stroke:none"
             d="m 0,0 c -0.028,0.027 -0.042,0.053 -0.042,0.073 0,0.021 -0.008,0.031 -0.021,0.031 H -0.188 C -0.203,0.076 -0.23,0.042 -0.272,0 c -0.14,-0.14 -0.277,-0.286 -0.409,-0.438 -0.132,-0.156 -0.241,-0.323 -0.325,-0.503 0,-0.057 0.007,-0.084 0.022,-0.084 h 0.062 c 0.07,0.069 0.14,0.135 0.21,0.198 0.069,0.062 0.139,0.129 0.209,0.199 0.111,0.069 0.202,0.153 0.273,0.251 0.069,0.099 0.131,0.195 0.188,0.293 C -0.015,-0.056 0,-0.027 0,0 m -1.319,-3.225 c -0.155,0 -0.28,0.021 -0.377,0.063 -0.029,0.015 -0.057,0.028 -0.084,0.042 -0.029,0.015 -0.071,0.027 -0.126,0.042 -0.028,0.015 -0.049,0.027 -0.063,0.042 -0.013,0.015 -0.035,0.027 -0.062,0.042 -0.071,0.069 -0.137,0.133 -0.199,0.188 -0.063,0.056 -0.116,0.125 -0.158,0.209 -0.055,0.113 -0.055,0.244 0,0.398 0.029,0.112 0.063,0.223 0.105,0.337 0.042,0.11 0.084,0.228 0.126,0.354 0.013,0.042 0.031,0.091 0.053,0.148 0.02,0.054 0.044,0.103 0.073,0.145 0.069,0.126 0.125,0.279 0.167,0.461 0.028,0.153 0.084,0.265 0.168,0.335 0.069,0.183 0.202,0.357 0.397,0.523 0.084,0.084 0.164,0.168 0.241,0.252 0.077,0.083 0.158,0.162 0.241,0.23 0.055,0.028 0.105,0.057 0.146,0.084 0.084,0.028 0.164,0.054 0.241,0.073 0.076,0.023 0.171,0.045 0.284,0.073 0.027,0.014 0.058,0.022 0.093,0.022 H 0.042 C 0.167,0.811 0.244,0.774 0.271,0.732 0.384,0.635 0.481,0.537 0.565,0.439 0.621,0.356 0.67,0.258 0.712,0.146 0.754,0.034 0.739,-0.077 0.67,-0.187 0.586,-0.301 0.488,-0.408 0.377,-0.513 0.265,-0.618 0.153,-0.719 0.042,-0.815 c -0.141,-0.114 -0.28,-0.229 -0.419,-0.347 -0.14,-0.119 -0.287,-0.234 -0.44,-0.346 -0.098,-0.07 -0.209,-0.096 -0.335,-0.084 -0.056,0 -0.098,-0.007 -0.125,-0.019 -0.084,-0.042 -0.14,-0.084 -0.168,-0.126 -0.056,-0.113 -0.084,-0.197 -0.084,-0.252 -0.07,-0.155 -0.091,-0.327 -0.063,-0.524 0.028,-0.028 0.049,-0.051 0.063,-0.073 0.013,-0.02 0.042,-0.046 0.084,-0.073 0.111,-0.029 0.202,-0.034 0.272,-0.022 0.181,0.03 0.349,0.077 0.502,0.147 0.195,0.07 0.374,0.146 0.534,0.23 0.16,0.084 0.325,0.175 0.491,0.273 0.183,0.111 0.361,0.219 0.536,0.324 0.174,0.105 0.352,0.213 0.534,0.325 0.084,0.028 0.146,0.042 0.188,0.042 0.042,0.028 0.087,0.025 0.136,-0.011 C 1.797,-1.386 1.814,-1.417 1.801,-1.444 1.759,-1.641 1.654,-1.814 1.486,-1.969 1.333,-2.052 1.183,-2.149 1.036,-2.262 0.89,-2.373 0.754,-2.484 0.628,-2.597 0.516,-2.667 0.4,-2.74 0.282,-2.815 0.164,-2.894 0.034,-2.953 -0.105,-2.994 c -0.098,-0.042 -0.199,-0.081 -0.303,-0.114 -0.106,-0.037 -0.214,-0.054 -0.325,-0.054 -0.098,-0.027 -0.196,-0.049 -0.293,-0.063 -0.098,-0.014 -0.196,-0.014 -0.293,0" /></g><g
           transform="translate(139.5952,21.999)"
           id="g84"><path
             id="path86"
             style="fill:#B28C67;fill-opacity:1;fill-rule:nonzero;stroke:none"
             d="m 0,0 h 0.187 c 0.071,0 0.148,0.007 0.232,0.021 0.069,0.014 0.143,0.025 0.22,0.032 0.076,0.008 0.149,0.009 0.219,0.009 0.154,0 0.293,0.019 0.419,0.053 0.125,0.035 0.251,0.08 0.377,0.136 0.154,0.07 0.304,0.137 0.45,0.199 0.147,0.063 0.296,0.122 0.451,0.178 0.167,0.058 0.324,0.115 0.47,0.18 0.147,0.061 0.297,0.129 0.451,0.197 0.153,0.07 0.295,0.146 0.429,0.23 0.133,0.084 0.269,0.175 0.407,0.273 0.015,0.013 0.037,0.02 0.064,0.02 0.182,0.126 0.328,0.224 0.44,0.294 0.112,0.071 0.216,0.14 0.314,0.209 0.098,0.072 0.202,0.152 0.314,0.241 0.112,0.091 0.265,0.212 0.461,0.368 0.502,0.419 0.949,0.85 1.34,1.298 0.14,0.153 0.273,0.295 0.399,0.428 0.125,0.133 0.251,0.277 0.377,0.43 0.125,0.125 0.244,0.278 0.355,0.46 C 8.487,5.437 8.603,5.619 8.722,5.801 8.84,5.982 8.963,6.163 9.088,6.345 9.199,6.513 9.29,6.687 9.36,6.869 9.43,7.05 9.486,7.245 9.527,7.455 9.527,7.511 9.531,7.561 9.538,7.603 9.545,7.645 9.549,7.692 9.549,7.748 9.563,7.804 9.566,7.856 9.56,7.905 9.552,7.954 9.549,7.999 9.549,8.041 9.535,8.32 9.423,8.601 9.214,8.879 9.158,8.948 9.109,9.008 9.067,9.058 9.025,9.105 8.977,9.165 8.921,9.235 8.864,9.318 8.774,9.396 8.647,9.465 8.438,9.591 8.226,9.702 8.01,9.801 7.793,9.897 7.566,9.976 7.329,10.03 c -0.293,0.072 -0.586,0.133 -0.88,0.189 -0.293,0.055 -0.593,0.105 -0.9,0.147 -0.056,0 -0.115,0.003 -0.178,0.01 C 5.309,10.383 5.242,10.38 5.172,10.366 4.977,10.366 4.809,10.324 4.67,10.24 4.6,10.212 4.537,10.178 4.481,10.136 4.425,10.094 4.362,10.052 4.293,10.01 3.958,9.814 3.595,9.641 3.204,9.486 3.092,9.444 2.987,9.438 2.89,9.465 2.848,9.479 2.827,9.515 2.827,9.57 2.799,9.653 2.813,9.725 2.868,9.779 2.91,9.877 2.966,9.961 3.036,10.03 c 0.321,0.281 0.608,0.574 0.859,0.88 0.055,0.069 0.153,0.133 0.292,0.19 0.125,0.042 0.249,0.079 0.368,0.114 0.118,0.035 0.233,0.08 0.344,0.137 0.294,0.084 0.517,0.236 0.671,0.461 0.139,0.152 0.272,0.278 0.398,0.376 0.335,0.237 0.656,0.516 0.963,0.837 0.139,0.154 0.283,0.293 0.429,0.419 0.147,0.125 0.29,0.265 0.43,0.419 l 0.377,0.377 c 0.125,0.125 0.229,0.265 0.312,0.418 0.042,0.071 0.088,0.129 0.138,0.179 l 0.157,0.157 c 0.112,0.139 0.23,0.315 0.356,0.525 0.126,0.209 0.209,0.377 0.251,0.502 0.028,0.054 0.046,0.103 0.053,0.145 0.006,0.042 0.017,0.099 0.031,0.168 0.014,0.099 -0.014,0.209 -0.084,0.335 L 9.234,16.815 C 9.192,16.857 9.144,16.893 9.088,16.92 9.032,16.948 8.983,16.962 8.941,16.962 8.788,16.99 8.638,17.016 8.491,17.035 8.345,17.058 8.194,17.061 8.041,17.046 7.706,17.019 7.371,16.977 7.036,16.92 6.701,16.864 6.373,16.768 6.052,16.627 6.022,16.613 5.989,16.604 5.947,16.596 5.905,16.589 5.87,16.571 5.842,16.543 5.646,16.475 5.462,16.4 5.287,16.323 5.112,16.246 4.935,16.159 4.753,16.062 4.712,16.033 4.666,16.002 4.617,15.968 4.568,15.934 4.53,15.901 4.502,15.873 4.474,15.845 4.442,15.812 4.408,15.77 4.373,15.728 4.362,15.678 4.376,15.622 4.418,15.426 4.404,15.23 4.335,15.035 4.236,14.658 4.111,14.274 3.958,13.884 3.748,13.339 3.546,12.795 3.351,12.25 3.154,11.706 2.959,11.168 2.764,10.638 2.694,10.442 2.646,10.24 2.617,10.03 2.617,9.85 2.555,9.695 2.429,9.57 2.317,9.416 2.227,9.259 2.156,9.1 2.087,8.938 2.017,8.781 1.947,8.628 1.835,8.32 1.72,8.015 1.602,7.706 1.483,7.399 1.361,7.092 1.235,6.785 1.151,6.575 1.089,6.366 1.047,6.156 1.033,6.129 1.043,6.09 1.078,6.041 1.113,5.992 1.145,5.976 1.173,5.989 1.368,6.018 1.566,6.038 1.77,6.052 c 0.202,0.013 0.4,0.042 0.596,0.084 0.126,0.027 0.251,0.05 0.377,0.062 0.125,0.014 0.251,0.014 0.377,0 0.042,0 0.08,-0.007 0.115,-0.02 C 3.27,6.163 3.309,6.156 3.351,6.156 3.378,6.144 3.396,6.111 3.402,6.062 3.409,6.015 3.399,5.976 3.371,5.947 3.329,5.905 3.294,5.877 3.267,5.863 3.154,5.835 3.043,5.821 2.932,5.821 2.819,5.821 2.708,5.814 2.597,5.801 2.442,5.786 2.289,5.776 2.136,5.771 1.982,5.762 1.828,5.745 1.675,5.717 1.368,5.675 1.103,5.542 0.879,5.319 0.852,5.291 0.827,5.263 0.806,5.235 0.785,5.207 0.761,5.181 0.732,5.151 0.551,5.025 0.426,4.865 0.354,4.67 0.327,4.601 0.293,4.537 0.251,4.481 0.209,4.426 0.174,4.362 0.146,4.293 0.007,4.125 -0.14,4.027 -0.293,4 -0.587,3.916 -0.81,3.763 -0.964,3.539 -1.021,3.469 -1.075,3.403 -1.131,3.34 -1.187,3.277 -1.25,3.211 -1.319,3.143 -1.474,2.933 -1.612,2.729 -1.738,2.534 -1.822,2.396 -1.889,2.255 -1.937,2.115 -1.986,1.977 -2.031,1.829 -2.073,1.676 V 1.528 c 0,-0.39 0.118,-0.712 0.355,-0.963 C -1.592,0.454 -1.463,0.356 -1.33,0.272 -1.197,0.188 -1.04,0.133 -0.858,0.104 -0.72,0.077 -0.58,0.061 -0.44,0.053 -0.301,0.046 -0.154,0.028 0,0 m 10.658,15.999 c 0,-0.224 -0.041,-0.405 -0.125,-0.545 0,-0.014 -0.008,-0.028 -0.021,-0.042 V 15.393 C 10.414,15.21 10.337,15.067 10.281,14.962 10.226,14.857 10.166,14.765 10.104,14.681 10.041,14.596 9.971,14.512 9.895,14.429 9.817,14.345 9.709,14.24 9.569,14.114 9.444,13.988 9.321,13.859 9.203,13.728 9.084,13.594 8.955,13.473 8.815,13.36 8.676,13.234 8.536,13.112 8.396,12.994 8.257,12.875 8.11,12.76 7.957,12.648 7.929,12.62 7.901,12.596 7.873,12.575 7.846,12.554 7.811,12.529 7.769,12.502 7.644,12.404 7.531,12.303 7.434,12.198 7.336,12.094 7.225,11.999 7.099,11.915 6.973,11.832 6.848,11.748 6.722,11.664 6.596,11.58 6.478,11.482 6.366,11.371 6.324,11.343 6.274,11.287 6.219,11.203 6.163,11.147 6.17,11.105 6.24,11.078 6.324,11.021 6.387,10.986 6.429,10.974 6.471,10.945 6.52,10.928 6.575,10.921 6.631,10.913 6.68,10.903 6.722,10.891 6.903,10.833 7.081,10.781 7.256,10.732 7.43,10.685 7.615,10.638 7.811,10.596 8.117,10.513 8.4,10.404 8.659,10.271 8.917,10.14 9.172,9.976 9.423,9.779 9.688,9.599 9.919,9.374 10.114,9.109 10.394,8.788 10.589,8.411 10.7,7.979 10.784,7.687 10.791,7.394 10.722,7.1 10.693,7.029 10.672,6.952 10.658,6.869 10.645,6.785 10.624,6.708 10.596,6.64 10.512,6.4 10.407,6.171 10.281,5.947 10.128,5.725 9.975,5.508 9.821,5.298 9.667,5.089 9.5,4.886 9.318,4.69 9.276,4.635 9.228,4.583 9.172,4.534 9.116,4.484 9.067,4.426 9.025,4.355 8.983,4.313 8.941,4.27 8.899,4.22 8.857,4.171 8.815,4.125 8.774,4.084 8.647,3.972 8.52,3.854 8.387,3.729 8.254,3.603 8.117,3.483 7.979,3.371 7.824,3.218 7.671,3.075 7.518,2.942 7.363,2.811 7.188,2.682 6.994,2.556 6.896,2.484 6.806,2.415 6.722,2.346 6.638,2.275 6.555,2.206 6.471,2.136 6.219,1.94 5.964,1.756 5.706,1.581 5.447,1.406 5.179,1.243 4.899,1.089 4.662,0.937 4.415,0.793 4.156,0.66 3.897,0.527 3.637,0.398 3.371,0.272 3.078,0.133 2.774,0.016 2.46,-0.084 2.146,-0.182 1.828,-0.265 1.508,-0.335 1.466,-0.349 1.42,-0.354 1.371,-0.354 1.322,-0.354 1.27,-0.362 1.214,-0.377 1.103,-0.391 0.991,-0.4 0.879,-0.408 0.768,-0.415 0.656,-0.426 0.544,-0.438 -0.196,-0.537 -0.929,-0.433 -1.654,-0.126 -1.78,-0.068 -1.913,0.016 -2.053,0.126 -2.108,0.183 -2.164,0.23 -2.22,0.272 -2.276,0.314 -2.339,0.356 -2.408,0.398 -2.479,0.454 -2.541,0.538 -2.597,0.649 -2.625,0.72 -2.66,0.785 -2.701,0.85 -2.743,0.911 -2.778,0.979 -2.807,1.047 -2.876,1.215 -2.911,1.382 -2.911,1.55 c 0,0.07 0.003,0.134 0.011,0.188 0.006,0.056 0.024,0.119 0.051,0.189 0.071,0.139 0.137,0.275 0.2,0.408 0.063,0.133 0.128,0.269 0.199,0.408 0.027,0.056 0.084,0.14 0.167,0.251 0.195,0.266 0.387,0.527 0.576,0.786 0.188,0.258 0.38,0.52 0.576,0.785 0.027,0.028 0.045,0.049 0.052,0.063 0.007,0.015 0.024,0.028 0.053,0.042 0.126,0.153 0.226,0.275 0.303,0.366 0.077,0.091 0.143,0.175 0.2,0.252 0.055,0.076 0.104,0.156 0.146,0.24 0.042,0.084 0.091,0.189 0.147,0.315 0.153,0.335 0.289,0.674 0.408,1.015 0.118,0.342 0.248,0.688 0.387,1.038 0.028,0.069 0.052,0.135 0.074,0.198 0.02,0.062 0.051,0.13 0.093,0.199 0.14,0.266 0.252,0.533 0.335,0.807 0.084,0.271 0.175,0.546 0.273,0.826 0.084,0.265 0.175,0.527 0.272,0.785 0.098,0.259 0.196,0.52 0.293,0.785 0.029,0.07 0.056,0.14 0.084,0.21 0.028,0.069 0.063,0.14 0.105,0.209 0.111,0.252 0.21,0.506 0.293,0.766 0.084,0.257 0.16,0.518 0.23,0.784 0.056,0.153 0.102,0.301 0.137,0.439 0.034,0.14 0.038,0.286 0.01,0.441 0,0.084 -0.035,0.111 -0.105,0.084 C 2.631,14.414 2.606,14.407 2.586,14.407 2.565,14.407 2.54,14.4 2.513,14.387 2.262,14.205 2.038,14.002 1.843,13.779 1.633,13.557 1.424,13.336 1.214,13.119 1.005,12.903 0.803,12.676 0.607,12.438 0.537,12.355 0.461,12.274 0.377,12.198 0.293,12.121 0.216,12.048 0.146,11.979 0.034,11.896 -0.081,11.854 -0.199,11.854 c -0.119,0 -0.22,0.034 -0.304,0.103 -0.042,0.042 -0.073,0.095 -0.094,0.157 -0.021,0.063 -0.017,0.122 0.01,0.178 0.07,0.126 0.137,0.248 0.199,0.367 0.063,0.118 0.129,0.24 0.2,0.366 0.027,0.056 0.058,0.112 0.093,0.167 0.035,0.056 0.074,0.106 0.116,0.147 0.223,0.279 0.454,0.548 0.691,0.807 0.237,0.257 0.495,0.5 0.774,0.722 0.042,0.042 0.087,0.08 0.137,0.115 0.049,0.036 0.094,0.08 0.136,0.136 0.545,0.53 1.137,0.971 1.78,1.319 0.642,0.349 1.326,0.628 2.052,0.838 0.18,0.056 0.356,0.105 0.523,0.147 0.182,0.056 0.399,0.098 0.65,0.126 h 0.188 c 0.056,0 0.118,0.014 0.189,0.041 0.195,0.042 0.383,0.056 0.565,0.042 0.182,-0.014 0.37,-0.014 0.565,0 h 0.083 c 0.475,-0.098 0.909,-0.23 1.299,-0.398 0.056,-0.028 0.109,-0.055 0.158,-0.084 0.048,-0.028 0.1,-0.055 0.157,-0.084 0.251,-0.181 0.439,-0.382 0.565,-0.606 0.028,-0.027 0.045,-0.06 0.052,-0.095 0.007,-0.035 0.018,-0.073 0.032,-0.115 0.028,-0.14 0.041,-0.224 0.041,-0.251" /></g><g
           transform="translate(154.3794,31.0879)"
           id="g88"><path
             id="path90"
             style="fill:#B28C67;fill-opacity:1;fill-rule:nonzero;stroke:none"
             d="M 0,0 C 0,0.083 -0.035,0.125 -0.104,0.125 -0.161,0.098 -0.21,0.083 -0.251,0.083 -0.293,0.083 -0.335,0.069 -0.377,0.041 -0.489,0.015 -0.586,-0.024 -0.67,-0.074 -0.754,-0.123 -0.838,-0.182 -0.922,-0.252 -1.033,-0.336 -1.145,-0.434 -1.257,-0.545 -1.368,-0.657 -1.48,-0.769 -1.592,-0.88 -1.759,-1.075 -1.92,-1.281 -2.073,-1.498 -2.227,-1.715 -2.381,-1.927 -2.534,-2.137 V -2.22 c -0.014,-0.028 -0.018,-0.046 -0.01,-0.051 0.007,-0.007 0.01,-0.019 0.01,-0.033 h 0.146 c 0.042,0.042 0.084,0.075 0.126,0.094 0.042,0.022 0.084,0.053 0.126,0.095 0.181,0.153 0.363,0.31 0.544,0.47 0.182,0.162 0.357,0.318 0.524,0.472 0.153,0.139 0.303,0.277 0.45,0.408 0.146,0.133 0.29,0.269 0.43,0.41 0.042,0.042 0.076,0.08 0.104,0.114 0.028,0.034 0.056,0.088 0.084,0.157 0.014,0.027 0.018,0.045 0.011,0.052 C 0.003,-0.024 0,-0.015 0,0 m 0.021,-3.246 c -0.182,0 -0.356,0.027 -0.524,0.084 -0.028,0.015 -0.056,0.031 -0.083,0.053 -0.028,0.02 -0.057,0.037 -0.084,0.051 -0.126,0.155 -0.182,0.3 -0.168,0.44 0.014,0.084 0.035,0.16 0.064,0.23 0.027,0.071 0.034,0.133 0.02,0.189 0,0.055 -0.028,0.084 -0.084,0.084 -0.014,-0.015 -0.028,-0.022 -0.042,-0.022 -0.014,0 -0.028,-0.007 -0.042,-0.02 C -1.02,-2.297 -1.117,-2.4 -1.215,-2.472 -1.284,-2.526 -1.348,-2.576 -1.403,-2.618 -1.459,-2.66 -1.521,-2.702 -1.592,-2.744 -1.661,-2.8 -1.729,-2.858 -1.79,-2.922 -1.854,-2.983 -1.927,-3.037 -2.011,-3.079 -2.317,-3.315 -2.681,-3.414 -3.1,-3.372 c -0.111,0 -0.237,0.057 -0.377,0.168 -0.055,0.083 -0.104,0.146 -0.146,0.188 -0.098,0.125 -0.106,0.245 -0.021,0.356 0.042,0.097 0.081,0.195 0.116,0.293 0.035,0.097 0.051,0.202 0.051,0.314 0.042,0.14 0.084,0.224 0.126,0.251 0.071,0.114 0.14,0.21 0.209,0.294 0.071,0.083 0.155,0.167 0.252,0.251 0.07,0.07 0.139,0.143 0.209,0.22 0.071,0.076 0.14,0.15 0.21,0.221 0.041,0.054 0.09,0.103 0.147,0.145 0.055,0.042 0.111,0.098 0.167,0.168 0.07,0.056 0.129,0.111 0.178,0.167 0.048,0.056 0.101,0.112 0.157,0.168 0.21,0.224 0.432,0.377 0.671,0.461 l 0.565,0.251 c 0.041,0.028 0.09,0.045 0.147,0.054 0.055,0.006 0.111,0.015 0.167,0.03 0.084,0.042 0.174,0.042 0.272,0 H 0.042 C 0.126,0.586 0.22,0.559 0.324,0.544 0.43,0.53 0.53,0.517 0.628,0.502 0.768,0.475 0.861,0.422 0.911,0.345 0.96,0.27 0.97,0.182 0.942,0.083 0.942,-0.111 0.894,-0.308 0.796,-0.503 0.754,-0.615 0.705,-0.727 0.649,-0.838 0.593,-0.95 0.551,-1.062 0.523,-1.173 0.495,-1.243 0.468,-1.31 0.439,-1.372 0.411,-1.435 0.384,-1.501 0.355,-1.57 0.314,-1.683 0.271,-1.795 0.23,-1.906 0.187,-2.018 0.153,-2.123 0.126,-2.22 v -0.147 c 0,-0.014 0.014,-0.03 0.041,-0.052 0.028,-0.02 0.056,-0.031 0.084,-0.031 0.07,0 0.126,0.008 0.168,0.02 0.111,0.042 0.227,0.091 0.346,0.147 0.118,0.055 0.233,0.111 0.344,0.168 0.168,0.111 0.343,0.226 0.524,0.345 0.181,0.12 0.356,0.234 0.524,0.345 0.237,0.126 0.474,0.232 0.712,0.316 0.042,0.012 0.09,0.019 0.147,0.019 0.027,0 0.055,-0.014 0.084,-0.041 0.027,-0.028 0.041,-0.056 0.041,-0.084 L 3.016,-1.402 2.764,-1.655 C 2.681,-1.738 2.597,-1.814 2.513,-1.885 2.317,-2.011 2.136,-2.144 1.969,-2.283 1.801,-2.423 1.626,-2.556 1.445,-2.681 1.347,-2.751 1.242,-2.816 1.131,-2.88 1.019,-2.941 0.907,-3.009 0.796,-3.079 0.586,-3.189 0.328,-3.246 0.021,-3.246" /></g><g
           transform="translate(156.5152,28.5117)"
           id="g92"><path
             id="path94"
             style="fill:#B28C67;fill-opacity:1;fill-rule:nonzero;stroke:none"
             d="M 0,0 C 0.195,0.461 0.377,0.925 0.545,1.394 0.712,1.86 0.81,2.338 0.838,2.827 0.936,2.883 1.016,2.925 1.078,2.952 1.142,2.98 1.204,2.987 1.267,2.975 1.33,2.96 1.399,2.921 1.477,2.858 1.553,2.796 1.646,2.708 1.759,2.598 c 0.097,0.054 0.175,0.114 0.23,0.176 0.056,0.064 0.112,0.137 0.168,0.22 0.196,0.14 0.387,0.274 0.575,0.4 C 2.921,3.519 3.134,3.608 3.371,3.665 3.567,3.692 3.752,3.703 3.927,3.696 4.101,3.688 4.265,3.645 4.419,3.561 4.558,3.504 4.628,3.406 4.628,3.268 4.572,3.127 4.502,3.059 4.419,3.059 H 4.229 C 4.174,3.059 4.111,3.071 4.042,3.101 3.874,3.101 3.71,3.081 3.55,3.047 3.389,3.012 3.238,2.918 3.1,2.765 2.708,2.401 2.338,2.019 1.989,1.612 1.641,1.207 1.354,0.747 1.131,0.23 1.103,0.146 1.071,0.073 1.037,0.011 1.002,-0.053 0.956,-0.126 0.9,-0.209 0.83,-0.377 0.719,-0.433 0.565,-0.377 0.454,-0.35 0.353,-0.313 0.262,-0.271 0.171,-0.229 0.084,-0.14 0,0" /></g></g></g></g></svg>