<?xml version="1.0" encoding="UTF-8" standalone="no"?>
<svg
        xmlns:dc="http://purl.org/dc/elements/1.1/"
        xmlns:cc="http://creativecommons.org/ns#"
        xmlns:rdf="http://www.w3.org/1999/02/22-rdf-syntax-ns#"
        xmlns:svg="http://www.w3.org/2000/svg"
        xmlns="http://www.w3.org/2000/svg"
        viewBox="0 0 304.12 215.03467"
        height="350"
        width="450"
        xml:space="preserve"
        id="svg2"
        version="1.1"><metadata
     id="metadata8"><rdf:RDF><cc:Work
         rdf:about=""><dc:format>image/svg+xml</dc:format><dc:type
        rdf:resource="http://purl.org/dc/dcmitype/StillImage"/></cc:Work></rdf:RDF></metadata>
    <defs
            id="defs6"><clipPath
       id="clipPath18"
       clipPathUnits="userSpaceOnUse"><path
         id="path16"
         d="M 0,161.276 H 228.09 V 0 H 0 Z" /></clipPath></defs>
    <g
            transform="matrix(1.3333333,0,0,-1.3333333,0,215.03467)"
            id="g10"><g
       id="g12"><g
         clip-path="url(#clipPath18)"
         id="g14"><g
           transform="translate(96.1822,14.1641)"
           id="g20"><path
             id="path22"
             style="fill:#B28C67;fill-opacity:0;fill-rule:nonzero;stroke:none"
             d="M 0,0 C 0.095,0 0.187,0.019 0.276,0.055 0.366,0.09 0.444,0.142 0.512,0.205 0.58,0.271 0.635,0.349 0.677,0.437 0.718,0.525 0.739,0.625 0.739,0.733 0.739,0.836 0.72,0.934 0.683,1.021 0.645,1.111 0.593,1.188 0.527,1.253 0.461,1.318 0.383,1.37 0.294,1.407 0.205,1.445 0.109,1.464 0.009,1.464 H -1.348 V 0 Z m -1.348,1.831 h 1.2 c 0.088,0 0.173,0.018 0.252,0.051 0.08,0.034 0.15,0.081 0.212,0.14 0.061,0.061 0.109,0.132 0.145,0.213 0.036,0.082 0.054,0.17 0.054,0.266 0,0.093 -0.018,0.182 -0.054,0.264 C 0.425,2.847 0.377,2.918 0.317,2.979 0.257,3.041 0.187,3.089 0.106,3.123 0.025,3.158 -0.06,3.176 -0.148,3.176 h -1.2 z m -0.457,-2.227 v 3.959 h 1.68 C 0.036,3.563 0.184,3.537 0.32,3.487 0.456,3.438 0.573,3.366 0.671,3.274 0.769,3.185 0.845,3.074 0.901,2.947 0.956,2.82 0.984,2.681 0.984,2.526 0.984,2.437 0.97,2.348 0.943,2.263 0.916,2.176 0.878,2.098 0.831,2.024 0.783,1.952 0.727,1.889 0.662,1.831 0.597,1.774 0.527,1.73 0.451,1.697 0.558,1.666 0.658,1.619 0.751,1.559 0.844,1.495 0.925,1.421 0.994,1.335 1.062,1.248 1.117,1.152 1.157,1.047 1.197,0.94 1.217,0.83 1.217,0.713 1.217,0.538 1.184,0.382 1.119,0.244 1.054,0.106 0.967,-0.01 0.858,-0.104 0.75,-0.196 0.625,-0.27 0.483,-0.319 0.341,-0.371 0.194,-0.396 0.041,-0.396 Z" /></g><g
            transform="translate(105.9644,17.7295)"
            id="g24"><path
             id="path26"
             style="fill:#B28C67;fill-opacity:0;fill-rule:nonzero;stroke:none"
             d="M 0,0 H 0.46 V -2.427 C 0.46,-2.666 0.419,-2.884 0.337,-3.082 0.256,-3.28 0.144,-3.45 0,-3.592 c -0.144,-0.14 -0.315,-0.252 -0.515,-0.33 -0.2,-0.079 -0.418,-0.118 -0.652,-0.118 -0.229,0 -0.443,0.038 -0.641,0.113 -0.197,0.076 -0.369,0.185 -0.515,0.325 -0.145,0.141 -0.26,0.311 -0.343,0.509 -0.084,0.199 -0.126,0.421 -0.126,0.666 V 0 h 0.455 v -2.425 c 0,-0.164 0.025,-0.32 0.077,-0.467 0.051,-0.146 0.127,-0.274 0.225,-0.384 0.099,-0.112 0.222,-0.2 0.367,-0.263 0.146,-0.065 0.313,-0.097 0.501,-0.097 0.182,0 0.345,0.032 0.489,0.095 0.143,0.063 0.266,0.149 0.366,0.258 0.102,0.108 0.179,0.236 0.232,0.383 0.054,0.144 0.08,0.299 0.08,0.467 z" /></g><g
            transform="translate(113.8814,14.1729)"
            id="g28"><path
             id="path30"
             style="fill:#B28C67;fill-opacity:0;fill-rule:nonzero;stroke:none"
             d="m 0,0 c 0.258,0 0.487,0.036 0.687,0.109 0.202,0.074 0.372,0.177 0.509,0.313 0.138,0.137 0.241,0.302 0.313,0.493 0.071,0.193 0.106,0.41 0.106,0.65 0,0.232 -0.033,0.445 -0.1,0.638 C 1.448,2.397 1.348,2.564 1.213,2.706 1.08,2.846 0.912,2.956 0.71,3.034 0.508,3.113 0.271,3.152 0,3.152 H -0.972 V 0 Z M -1.429,3.555 H 0.012 C 0.31,3.555 0.586,3.511 0.839,3.423 1.093,3.336 1.312,3.208 1.494,3.039 1.678,2.87 1.821,2.663 1.924,2.418 2.026,2.172 2.078,1.893 2.078,1.578 2.078,1.282 2.033,1.014 1.942,0.771 1.853,0.526 1.72,0.317 1.546,0.146 1.371,-0.029 1.156,-0.164 0.901,-0.261 0.646,-0.355 0.353,-0.404 0.023,-0.404 h -1.452 z" /></g><g
            transform="translate(124.4956,17.7275)"
            id="g32"><path
             id="path34"
             style="fill:#B28C67;fill-opacity:0;fill-rule:nonzero;stroke:none"
             d="M 0,0 H 0.489 L -1.202,-3.959 H -1.63 L -3.32,0 h 0.485 l 1.418,-3.358 h 0.003 z" /></g><g
            transform="translate(130.6753,15.0928)"
            id="g36"><path
             id="path38"
             style="fill:#B28C67;fill-opacity:0;fill-rule:nonzero;stroke:none"
             d="M 0,0 H 1.711 L 0.873,1.978 0.854,2.043 0.841,1.978 Z M 1.88,-0.398 H -0.169 L -0.562,-1.324 H -1.048 L 0.635,2.635 H 1.08 L 2.759,-1.324 H 2.273 Z" /></g><g
            transform="translate(104.7876,101.5078)"
            id="g40"><path
             id="path42"
             style="fill:#B28C67;fill-opacity:1;fill-rule:nonzero;stroke:none"
             d="M 0,0 C 0.2,0.403 0.586,1.254 0.852,1.886 1.122,2.517 1.583,3.489 1.878,4.042 2.173,4.594 2.488,5.167 2.58,5.317 2.667,5.462 2.846,5.508 2.97,5.421 3.099,5.333 3.273,5.213 3.365,5.164 3.452,5.109 3.605,5.051 3.697,5.026 3.792,5.005 3.942,4.984 4.034,4.98 4.125,4.977 4.287,4.984 4.399,4.997 c 0.108,0.017 0.374,0.158 0.594,0.308 0.216,0.153 0.494,0.357 0.623,0.448 0.125,0.1 0.66,0.544 1.184,1.001 0.528,0.453 1.259,1.105 1.62,1.454 0.361,0.345 0.768,0.744 0.901,0.881 0.133,0.137 0.387,0.544 0.565,0.909 0.179,0.366 0.586,1.176 0.902,1.803 0.316,0.627 0.885,1.612 1.263,2.193 0.382,0.578 0.843,1.317 1.034,1.637 0.19,0.32 0.345,0.461 0.345,0.307 0,-0.153 0.033,-0.473 0.079,-0.71 0.041,-0.237 0.162,-0.565 0.265,-0.727 0.104,-0.162 0.482,-0.548 0.835,-0.852 0.353,-0.307 0.681,-0.598 0.727,-0.652 0.046,-0.054 0.175,-0.241 0.278,-0.423 0.104,-0.179 0.258,-0.42 0.345,-0.536 0.083,-0.117 0.249,-0.266 0.366,-0.337 0.116,-0.066 0.382,-0.207 0.59,-0.311 0.212,-0.108 0.552,-0.241 0.76,-0.299 0.203,-0.058 0.315,-0.192 0.249,-0.299 -0.07,-0.104 -0.15,-0.32 -0.174,-0.478 C 17.725,10.156 17.691,9.853 17.675,9.633 17.658,9.417 17.671,9.026 17.699,8.765 17.733,8.499 17.795,8.083 17.837,7.843 17.878,7.602 17.97,7.228 18.04,7.012 c 0.066,-0.216 0.121,-0.54 0.121,-0.719 0,-0.178 0.025,-0.652 0.05,-1.046 0.024,-0.395 0.05,-1.052 0.05,-1.455 0,-0.407 -0.022,-1 -0.042,-1.32 C 18.198,2.147 18.106,1.633 18.02,1.321 17.928,1.009 17.75,0.569 17.616,0.345 17.483,0.116 17.222,-0.241 17.031,-0.453 16.84,-0.668 16.562,-0.951 16.408,-1.084 16.258,-1.221 15.98,-1.421 15.797,-1.533 15.61,-1.645 15.361,-1.736 15.24,-1.736 h -0.507 c -0.157,0 -0.394,0.104 -0.527,0.233 -0.133,0.124 -0.457,0.323 -0.719,0.444 -0.261,0.12 -0.863,0.257 -1.333,0.299 -0.465,0.041 -1.096,0.092 -1.395,0.108 C 10.455,-0.635 10.011,-0.673 9.762,-0.731 9.517,-0.789 9.072,-0.943 8.786,-1.067 8.495,-1.192 8.067,-1.421 7.838,-1.575 7.606,-1.724 7.298,-1.803 7.157,-1.745 7.012,-1.687 6.459,-1.583 5.919,-1.516 5.384,-1.445 4.511,-1.358 3.984,-1.312 3.456,-1.271 2.442,-1.188 1.724,-1.13 1.01,-1.072 0.283,-1.009 0.117,-0.989 c -0.171,0.021 -0.346,0.063 -0.395,0.092 -0.046,0.033 -0.087,0.079 -0.087,0.108 0,0.029 0.166,0.382 0.365,0.789 M 29.547,6.426 C 29.505,6.488 29.352,6.654 29.202,6.8 29.131,6.866 29.007,6.987 28.861,7.128 28.703,7.282 28.512,7.465 28.342,7.63 c -0.328,0.321 -0.81,0.753 -1.08,0.969 -0.27,0.211 -0.648,0.539 -0.848,0.731 -0.195,0.187 -0.855,0.905 -1.466,1.595 -0.61,0.685 -1.325,1.453 -1.594,1.707 -0.271,0.253 -0.533,0.544 -0.59,0.648 -0.055,0.104 -0.113,0.64 -0.129,1.192 -0.013,0.552 -0.005,1.163 0.028,1.35 0.033,0.191 0.188,0.577 0.345,0.864 0.158,0.283 0.333,0.594 0.39,0.689 0.055,0.092 0.122,0.25 0.142,0.345 0.024,0.092 -0.02,0.229 -0.1,0.3 -0.079,0.074 -0.215,0.178 -0.303,0.232 -0.087,0.054 -0.158,0.216 -0.158,0.357 0,0.141 0.034,0.789 0.075,1.437 0.038,0.648 0.062,1.596 0.054,2.098 -0.008,0.507 -0.012,1.163 -0.012,1.467 0,0.299 0.046,0.681 0.099,0.847 0.054,0.166 0.124,0.507 0.159,0.76 0.033,0.253 0.078,0.748 0.099,1.093 0.025,0.349 -0.009,1.416 -0.071,2.372 -0.063,0.955 -0.174,3.094 -0.245,4.755 -0.071,1.658 -0.12,3.477 -0.116,4.038 0.008,0.561 0.062,1.225 0.116,1.479 0.054,0.253 0.108,0.556 0.116,0.677 0.009,0.116 0.071,0.378 0.145,0.573 0.072,0.199 0.133,0.594 0.142,0.877 0.008,0.286 0.087,0.71 0.17,0.947 0.092,0.236 0.267,0.618 0.391,0.847 0.125,0.228 0.257,0.498 0.287,0.59 0.033,0.095 0.174,0.224 0.315,0.286 0.146,0.067 0.291,0.175 0.332,0.246 0.042,0.074 0.05,0.191 0.029,0.257 -0.024,0.075 -0.108,0.133 -0.186,0.133 h -0.345 c -0.112,0 -0.042,0.12 0.157,0.27 0.196,0.154 0.437,0.332 0.533,0.403 0.089,0.07 0.153,0.204 0.129,0.286 -0.026,0.092 -0.109,0.163 -0.188,0.163 -0.079,0 -0.058,0.112 0.042,0.257 0.104,0.141 0.17,0.337 0.146,0.428 -0.026,0.096 -0.109,0.175 -0.188,0.175 h -0.258 c -0.061,0 -0.336,-0.2 -0.606,-0.445 -0.266,-0.245 -0.652,-0.594 -0.86,-0.777 -0.204,-0.183 -0.336,-0.174 -0.287,0.017 0.046,0.187 0.146,0.536 0.212,0.773 0.075,0.236 0.183,0.552 0.245,0.706 0.067,0.149 0.105,0.344 0.088,0.427 -0.016,0.092 -0.088,0.158 -0.158,0.158 -0.07,0 -0.191,-0.024 -0.274,-0.054 -0.075,-0.033 -0.22,-0.178 -0.316,-0.332 -0.096,-0.15 -0.278,-0.499 -0.415,-0.773 -0.134,-0.278 -0.349,-0.831 -0.473,-1.225 -0.129,-0.395 -0.291,-0.989 -0.358,-1.321 -0.075,-0.332 -0.262,-1.566 -0.42,-2.746 -0.157,-1.175 -0.606,-4.573 -0.992,-7.548 -0.387,-2.978 -0.711,-5.744 -0.723,-6.147 -0.012,-0.407 0.017,-1.209 0.062,-1.782 0.05,-0.573 0.079,-1.292 0.066,-1.595 -0.011,-0.308 -0.07,-1.092 -0.128,-1.753 -0.058,-0.656 -0.287,-1.209 -0.511,-1.221 -0.229,-0.012 -0.469,0.045 -0.544,0.133 -0.071,0.087 -0.22,0.237 -0.332,0.332 -0.113,0.096 -0.337,0.212 -0.503,0.258 -0.166,0.049 -0.432,0.066 -0.59,0.041 -0.157,-0.021 -0.402,0.112 -0.544,0.303 -0.146,0.191 -0.553,0.636 -0.905,0.993 -0.358,0.354 -0.773,0.731 -0.918,0.831 -0.155,0.104 -0.42,0.228 -0.59,0.274 -0.175,0.046 -0.395,0.062 -0.49,0.029 C 13.546,23.893 13.371,23.735 13.251,23.569 13.135,23.403 12.798,22.851 12.508,22.343 12.213,21.841 11.789,21.064 11.556,20.62 11.328,20.179 10.966,19.428 10.755,18.954 10.538,18.48 10.248,17.791 10.106,17.417 9.965,17.047 9.732,16.366 9.587,15.909 9.446,15.452 9.222,14.708 9.084,14.256 8.952,13.807 8.694,13.064 8.511,12.603 8.329,12.146 8.129,11.66 8.067,11.527 8.005,11.394 7.843,11.245 7.706,11.194 7.573,11.149 7.315,11.124 7.132,11.137 6.95,11.153 6.671,11.17 6.513,11.17 c -0.158,0 -0.286,0.029 -0.286,0.07 0,0.038 -0.038,0.162 -0.087,0.275 -0.046,0.108 -0.025,0.307 0.045,0.444 0.071,0.133 0.142,0.436 0.158,0.673 0.017,0.237 0.054,0.515 0.083,0.619 0.033,0.103 0.116,0.282 0.187,0.403 0.075,0.116 0.1,0.286 0.058,0.374 C 6.634,14.115 6.48,14.235 6.327,14.302 6.177,14.364 5.969,14.389 5.865,14.356 5.766,14.327 5.57,14.269 5.437,14.227 5.3,14.189 5.109,14.111 5.005,14.057 4.902,13.999 4.756,13.911 4.673,13.853 4.594,13.799 4.482,13.625 4.416,13.467 4.354,13.309 4.212,13.056 4.1,12.906 3.988,12.756 3.697,12.453 3.452,12.229 3.211,12.009 2.846,11.697 2.65,11.54 2.451,11.381 2.11,10.996 1.89,10.679 1.666,10.364 1.284,9.783 1.043,9.388 0.793,8.993 0.403,8.433 0.162,8.15 -0.075,7.863 -0.436,7.373 -0.64,7.057 -0.847,6.742 -1.196,6.285 -1.417,6.036 -1.641,5.794 -2.151,5.254 -2.554,4.843 -2.958,4.432 -3.51,3.872 -3.788,3.597 -4.062,3.319 -4.619,2.758 -5.022,2.347 -5.42,1.939 -5.84,1.554 -5.952,1.487 c -0.266,0.291 -0.52,0.59 -0.76,0.901 -1.026,1.334 -1.845,2.792 -2.385,4.391 -0.153,0.457 -0.199,0.951 -0.374,1.396 -0.436,1.113 -0.544,2.276 -0.577,3.451 -0.046,1.513 -0.092,3.029 -0.096,4.545 0,0.914 0.08,1.828 0.117,2.746 0.066,1.79 0.12,3.58 0.195,5.366 0.038,0.873 0.029,1.758 0.174,2.613 0.283,1.687 0.291,3.39 0.404,5.084 0.091,1.371 0.203,2.746 0.315,4.117 0.108,1.387 0.22,2.771 0.336,4.158 0.05,0.561 0.096,1.125 0.146,1.686 h -1.23 c -0.216,-1.113 -0.216,-2.268 -0.315,-3.406 -0.117,-1.342 -0.225,-2.687 -0.332,-4.029 -0.113,-1.442 -0.225,-2.882 -0.32,-4.324 -0.121,-1.811 -0.229,-3.626 -0.333,-5.437 -0.062,-1.093 -0.12,-2.185 -0.154,-3.278 -0.07,-2.322 -0.132,-4.648 -0.174,-6.974 -0.02,-0.985 -0.046,-1.973 0.025,-2.953 0.1,-1.355 0.258,-2.705 0.449,-4.051 0.129,-0.934 0.299,-1.869 0.54,-2.783 0.22,-0.822 0.54,-1.628 0.86,-2.421 0.585,-1.442 1.179,-2.883 2.122,-4.15 0.025,-0.033 0.05,-0.067 0.079,-0.104 0.66,-0.901 1.242,-1.865 2.09,-2.621 0.307,-0.274 0.61,-0.556 0.913,-0.839 0,0 0.005,0 0.005,-0.005 0.332,-0.302 0.668,-0.61 1.017,-0.896 0.544,-0.458 1.113,-0.901 1.724,-1.255 0.735,-0.428 1.516,-0.785 2.301,-1.109 0.893,-0.369 1.807,-0.69 2.729,-0.985 0.495,-0.161 1.014,-0.261 1.533,-0.34 0.228,-0.033 0.453,-0.071 0.681,-0.108 0.096,-0.477 0.187,-1.117 0.233,-1.686 0.071,-0.873 0.124,-2.219 0.124,-2.987 0,-0.768 0.108,-2.849 0.237,-4.619 0.129,-1.77 0.2,-3.706 0.158,-4.304 -0.042,-0.598 -0.15,-1.395 -0.237,-1.777 -0.083,-0.379 -0.257,-0.993 -0.386,-1.367 -0.129,-0.369 -0.274,-0.931 -0.328,-1.25 -0.058,-0.312 -0.12,-0.794 -0.145,-1.06 -0.025,-0.269 0.008,-0.964 0.07,-1.537 0.063,-0.577 0.199,-1.545 0.303,-2.141 0.104,-0.604 0.233,-1.535 0.287,-2.071 0.054,-0.535 0.129,-3.517 0.158,-4.199 0.029,-0.677 0.025,-1.44 -0.017,-1.693 -0.037,-0.255 -0.162,-0.608 -0.27,-0.79 -0.112,-0.184 -0.382,-0.508 -0.602,-0.719 -0.224,-0.217 -0.436,-0.536 -0.474,-0.719 -0.041,-0.183 -0.062,-0.47 -0.045,-0.632 0.016,-0.166 0.078,-0.361 0.145,-0.43 0.062,-0.072 0.224,-0.208 0.357,-0.305 0.133,-0.091 0.362,-0.282 0.503,-0.415 0.145,-0.133 0.386,-0.424 0.544,-0.644 0.162,-0.224 0.444,-0.715 0.635,-1.091 0.187,-0.383 0.378,-0.912 0.416,-1.181 0.038,-0.271 0.066,-0.569 0.058,-0.66 -0.001,-0.012 0.004,-0.026 0.012,-0.039 -1.212,-2.573 -7.258,-5.023 -15.81,-5.023 v -1.246 h 33.318 v 0.623 0.623 c -7.287,0 -12.754,1.78 -14.961,3.899 0.068,-0.012 0.136,-0.022 0.199,-0.03 0.312,-0.042 0.802,-0.075 1.093,-0.075 0.295,0 0.651,0.059 0.806,0.133 0.149,0.071 0.328,0.191 0.402,0.27 0.071,0.081 0.167,0.208 0.212,0.288 0.05,0.083 0.055,0.204 0.017,0.273 -0.041,0.07 -0.196,0.158 -0.345,0.187 -0.149,0.029 -0.428,0.108 -0.619,0.174 -0.187,0.063 -0.482,0.15 -0.644,0.201 -0.166,0.048 -0.394,0.131 -0.503,0.186 -0.111,0.054 -0.273,0.153 -0.352,0.216 -0.083,0.062 -0.154,0.411 -0.154,0.776 v 1.841 c 0,0.645 -0.058,1.641 -0.133,2.21 -0.079,0.568 -0.162,1.517 -0.195,2.099 -0.033,0.585 -0.025,1.743 0.013,2.569 0.041,0.831 0.128,4.2 0.194,5.064 0.067,0.86 0.183,2.359 0.258,3.331 0.074,0.972 0.22,2.306 0.324,2.962 0.104,0.652 0.29,1.636 0.415,2.185 0.129,0.544 0.283,1.176 0.345,1.404 0.067,0.229 0.137,0.552 0.158,0.719 0.025,0.166 0.079,0.457 0.117,0.647 0.041,0.192 0.169,0.894 0.286,1.566 0.121,0.673 0.333,2.094 0.473,3.162 0.146,1.067 0.3,2.438 0.345,3.044 0.05,0.611 0.088,1.554 0.088,2.098 v 1.728 c 0.59,0.079 1.175,0.183 1.757,0.324 0.98,0.237 1.976,0.449 2.916,0.81 1.279,0.49 2.562,0.98 3.705,1.803 0.997,0.715 2.044,1.35 2.903,2.235 0.445,0.457 0.96,0.843 1.355,1.329 0,0 0.007,0.004 0.007,0.008 0.1,0.091 0.184,0.175 0.246,0.241 0.261,0.278 0.611,0.723 0.777,0.993 0.066,0.108 0.162,0.27 0.273,0.457 0.151,0.265 0.329,0.581 0.474,0.847 0.212,0.395 0.444,0.897 0.549,1.196 0,0 0.004,0.005 0.004,0.009 0.012,0.037 0.025,0.075 0.033,0.104 0.079,0.27 0.227,0.905 0.332,1.408 0.104,0.507 0.187,1.075 0.187,1.267 0,0.187 0.063,0.498 0.146,0.689 0.074,0.187 0.278,0.557 0.444,0.819 0.166,0.261 0.345,0.673 0.403,0.918 0.054,0.244 0.137,0.614 0.187,0.818 0.046,0.208 0.054,0.428 0.013,0.49" /></g><g
            transform="translate(70.878,30.8154)"
            id="g44">
</g>
</g>
</g>
</g>
</svg>