<?xml version="1.0" encoding="iso-8859-1"?>
<!-- Generator: Adobe Illustrator 19.0.0, SVG Export Plug-In . SVG Version: 6.00 Build 0)  -->
<svg version="1.1" id="Layer_1" xmlns="http://www.w3.org/2000/svg" xmlns:xlink="http://www.w3.org/1999/xlink" x="0px" y="0px"
	 viewBox="0 0 512 512" style="fill:#9D7F63;fill-opacity:1;fill-rule:nonzero;stroke:none" xml:space="preserve">
<g>
	<g>
		<path d="M268.73,256.328c-18.776-22.128-34.991-41.239-34.991-83.807V89.044h5.565V0H128v89.044h5.565v83.478
			c0,42.567-16.215,61.678-34.992,83.807c-20.118,23.712-42.921,50.587-42.921,105.411V512h256V361.739
			C311.652,306.915,288.849,280.041,268.73,256.328z M161.391,33.391h44.522v22.261h-44.522V33.391z M166.957,172.522V89.044h33.391
			v83.478c0,20.703,3.255,37.416,8.386,51.482l-25.081,25.081l-25.081-25.08C163.702,209.938,166.957,193.224,166.957,172.522z
			 M278.261,478.609H89.043v-116.87c0-42.567,16.215-61.678,34.992-83.807c6.068-7.152,12.378-14.6,18.236-23.007l41.381,41.381
			l41.382-41.382c5.858,8.408,12.168,15.855,18.236,23.007c18.776,22.13,34.991,41.241,34.991,83.808V478.609z"/>
	</g>
</g>
<g>
	<g>
		<path d="M122.435,345.043v100.174H244.87V345.043H122.435z M211.478,411.826h-55.652v-33.391h55.652V411.826z"/>
	</g>
</g>
<g>
	<g>
		<path d="M456.348,306.087V111.304H333.913v194.783c0,27.967,18.858,51.596,44.522,58.884v113.637h-38.956V512h111.304v-33.391
			h-38.956V364.971C437.49,357.683,456.348,334.054,456.348,306.087z M367.304,144.696h55.652v33.391h-55.652V144.696z
			 M395.13,333.913c-15.343,0-27.826-12.483-27.826-27.826v-94.609h55.652v94.609C422.957,321.43,410.474,333.913,395.13,333.913z"
			/>
	</g>
</g>
<g>
</g>
<g>
</g>
<g>
</g>
<g>
</g>
<g>
</g>
<g>
</g>
<g>
</g>
<g>
</g>
<g>
</g>
<g>
</g>
<g>
</g>
<g>
</g>
<g>
</g>
<g>
</g>
<g>
</g>
</svg>
