<?xml version='1.0' encoding='iso-8859-1'?>
<!DOCTYPE svg PUBLIC '-//W3C//DTD SVG 1.1//EN' 'http://www.w3.org/Graphics/SVG/1.1/DTD/svg11.dtd'>
<svg version="1.1" xmlns="http://www.w3.org/2000/svg" style="fill:#9D7F63;fill-opacity:1;fill-rule:nonzero;stroke:none" viewBox="0 0 294.066 294.066" xmlns:xlink="http://www.w3.org/1999/xlink" enable-background="new 0 0 294.066 294.066">
  <g>
    <path d="m125.886,49.925l6.082,1.82 19.759,5.913 7.246,9.356 1.925-1.138c3.775-2.231 8.081-3.41 12.454-3.411 0,0 0.001,0 0.002,0 8.628,0 16.714,4.612 21.102,12.036 1.5,2.538 2.482,5.271 2.991,8.061l16.848,5.042c0.602,0.18 1.22,0.267 1.848,0.267 6.003,0 12.982-7.964 16.315-19.101 3.681-12.301 1.519-23.814-4.83-25.714l-46.413-13.891c-1.474-0.441-2.995-0.661-4.515-0.661-1.727,0-3.452,0.284-5.106,0.851l-12.697,4.352-19.759-5.913-6.082-1.82c-6.616-1.98-13.58,1.778-15.56,8.392-1.98,6.614 1.777,13.579 8.39,15.559z"/>
    <path d="m250.679,230.252l-24.887-81.02c-1.766-5.747-6.791-9.885-12.77-10.514l-55.795-5.867-2.79-6.237-11.598,6.856c-3.773,2.23-8.084,3.408-12.466,3.408-3.609,0-7.234-0.816-10.496-2.362-0.767-0.363-1.933-1.101-2.592-1.635l-39.614-32.106 47.261,22.857c3.769,1.822 8.199,1.638 11.803-0.492l42.992-25.411c1.236-0.73 2.299-1.641 3.178-2.678 3.451-4.071 4.043-10.099 0.952-14.88-3.676-5.687-11.357-7.211-17.187-3.765l-36.887,21.802-42.8-20.699 40.635,8.038 20.944-12.379-3.851-4.972-24.376-9.978c-5.079-3.146-11.576-3.8-17.44-1.177l-30.34,13.572c-9.396,4.203-13.605,15.228-9.402,24.624l38.878,86.905c1.753,5.099 6.196,9.081 11.894,9.961l4.532,.7-32.182,8.57-26.899-101.011c-1.257-4.723-6.257-7.45-10.957-5.859-4.283,1.451-6.56,6.146-5.396,10.516l48.66,182.732c1.013,3.804 4.45,6.315 8.208,6.315 0.967,0 1.954-0.165 2.925-0.518 4.19-1.524 6.358-6.179 5.211-10.487l-17.377-65.259 51.215-13.639 17.463,65.575c1.013,3.804 4.45,6.315 8.208,6.315 0.966,0 1.953-0.165 2.924-0.518 4.19-1.523 6.36-6.177 5.213-10.485l-17.61-66.128 8.393,1.297 19.903,65.901c1.959,6.485 7.912,10.668 14.354,10.667 1.436,0 2.897-0.208 4.343-0.645 7.931-2.395 12.418-10.766 10.022-18.696l-22.635-74.946c-1.669-5.527-6.363-9.605-12.069-10.487l-34.149-5.845c-1.62-0.277-1.899-2.486-0.398-3.157 0.258-0.115 0.542-0.163 0.823-0.139l53.377,4.647 21.976,71.543c1.982,6.452 7.919,10.6 14.334,10.6 1.458,0 2.942-0.215 4.409-0.665 7.917-2.434 12.366-10.826 9.933-18.745z"/>
    <circle cx="76.755" cy="27.597" r="27.59"/>
  </g>
</svg>
