<?xml version="1.0" standalone="no"?>
<!DOCTYPE svg PUBLIC "-//W3C//DTD SVG 20010904//EN"
 "http://www.w3.org/TR/2001/REC-SVG-20010904/DTD/svg10.dtd">
<svg version="1.0" xmlns="http://www.w3.org/2000/svg"
 width="512.000000pt" height="512.000000pt" viewBox="0 0 512.000000 512.000000"
 preserveAspectRatio="xMidYMid meet">

<g transform="translate(0.000000,512.000000) scale(0.100000,-0.100000)"
fill="#9D7F63" stroke="none">
<path d="M504 3606 c-34 -15 -72 -58 -80 -91 -3 -12 15 -135 41 -273 88 -478
97 -555 102 -874 l5 -287 -243 -3 c-220 -3 -247 -5 -272 -22 -32 -22 -57 -65
-57 -98 0 -31 115 -373 135 -405 37 -56 -63 -53 1860 -53 1539 0 1780 2 1804
15 46 23 54 66 20 109 l-20 26 -1774 0 -1773 0 -43 128 c-23 70 -44 133 -47
140 -3 9 481 12 2398 12 1917 0 2401 -3 2398 -12 -3 -7 -24 -70 -47 -141 l-43
-127 -393 0 -394 0 -20 -26 c-34 -43 -26 -86 20 -109 23 -12 96 -15 424 -15
427 0 446 2 480 53 20 32 135 374 135 405 0 33 -25 76 -57 98 -25 17 -52 19
-270 22 l-243 3 0 232 c0 306 22 492 122 1021 l32 169 -20 35 c-10 20 -32 45
-47 56 -28 21 -40 21 -530 24 -276 2 -517 0 -535 -3 -44 -8 -100 -59 -107 -98
-4 -19 12 -132 40 -282 87 -475 97 -559 102 -873 l5 -282 -291 0 -291 0 0 228
c0 303 21 481 117 996 l37 198 -20 36 c-10 19 -32 45 -47 56 -28 21 -40 21
-535 24 -328 2 -520 -1 -542 -7 -20 -6 -49 -24 -65 -41 -40 -42 -39 -78 13
-355 86 -464 102 -608 102 -907 l0 -228 -291 0 -291 0 5 283 c5 313 16 404
103 876 26 140 43 259 39 277 -6 35 -47 78 -88 93 -39 15 -568 15 -600 0 -24
-11 -47 -47 -47 -73 0 -7 9 -25 21 -40 l20 -26 270 0 c306 0 279 9 258 -90
l-11 -50 -437 0 -438 0 -12 57 c-17 84 -17 83 39 83 37 0 55 5 70 20 25 25 26
71 1 101 -16 20 -29 24 -92 26 -48 2 -85 -2 -105 -11z m2511 -183 c-3 -27 -9
-58 -12 -70 l-5 -23 -438 0 -438 0 -5 23 c-3 12 -9 43 -12 70 l-7 47 462 0
462 0 -7 -47z m1525 34 c0 -8 -5 -39 -11 -70 l-12 -57 -438 0 -437 0 -11 50
c-22 100 -74 90 449 90 377 0 460 -2 460 -13z m-3090 -283 c0 -4 -11 -72 -25
-153 -32 -192 -52 -345 -61 -458 l-6 -92 -72 -16 c-142 -33 -373 -30 -522 7
l-41 10 -7 96 c-7 97 -43 365 -70 517 -8 44 -12 83 -9 88 5 8 813 10 813 1z
m1516 -26 c-31 -152 -86 -561 -86 -640 l0 -36 -72 -17 c-144 -33 -374 -30
-524 7 l-41 10 -7 86 c-9 121 -33 302 -62 471 -13 80 -24 146 -24 148 0 2 185
3 411 3 l412 0 -7 -32z m1517 25 c3 -5 -1 -44 -9 -88 -27 -153 -63 -420 -70
-517 l-7 -97 -71 -16 c-143 -33 -373 -30 -522 7 l-42 10 -6 91 c-9 113 -29
267 -61 458 -14 81 -25 149 -25 153 0 9 808 7 813 -1z m-3443 -887 c130 0 205
5 253 15 l67 16 0 -119 0 -118 -320 0 -320 0 0 118 0 119 68 -16 c47 -10 122
-15 252 -15z m1520 0 c130 0 205 5 253 15 l67 16 0 -119 0 -118 -320 0 -320 0
0 118 0 119 68 -16 c47 -10 122 -15 252 -15z m1520 0 c130 0 205 5 253 15 l67
16 0 -119 0 -118 -320 0 -320 0 0 118 0 119 68 -16 c47 -10 122 -15 252 -15z"/>
</g>
</svg>
