<?xml version="1.0" encoding="iso-8859-1"?>
<!-- Generator: Adobe Illustrator 19.0.0, SVG Export Plug-In . SVG Version: 6.00 Build 0)  -->
<svg version="1.1" id="Layer_1" xmlns="http://www.w3.org/2000/svg" xmlns:xlink="http://www.w3.org/1999/xlink" x="0px" y="0px"
	 viewBox="0 0 299.2 299.2" style="fill:#9D7F63;fill-opacity:1;fill-rule:nonzero;stroke:none" xml:space="preserve">
<g>
	<g>
		<g>
			<path d="M110,25.633c5.123-1.814,8.8-6.688,8.8-12.433c0-7.29-5.91-13.2-13.2-13.2h-8.8H44h-8.8C27.91,0,22,5.91,22,13.2
				c0,5.745,3.677,10.619,8.8,12.433v68.539c-8.739,9.476-26.4,31.095-26.4,51.029V286c0,7.29,5.91,13.2,13.2,13.2h105.6
				c7.29,0,13.2-5.91,13.2-13.2V145.2c0-19.934-17.661-41.553-26.4-51.029V25.633z M57.2,26.4h26.4v59.881H57.2V26.4z M110,272.8
				H30.8v-26.4H110V272.8z M110,220H30.8v-44H110V220z M110,149.6H30.8v-4.4c0-8.305,10.237-22.931,18.868-32.519H91.13
				C99.768,122.275,110,136.896,110,145.2V149.6z"/>
			<path d="M294.8,163.159V92.758c0-7.29-5.91-13.2-13.2-13.2H176c-7.29,0-13.2,5.91-13.2,13.2v70.401
				c0,31.873,22.711,58.539,52.8,64.672V272.8h-22.02c-7.29,0-13.2,5.91-13.2,13.2s5.91,13.2,13.2,13.2h70.441
				c7.29,0,13.2-5.91,13.2-13.2s-5.91-13.2-13.2-13.2H242v-44.969C272.089,221.699,294.8,195.032,294.8,163.159z M189.2,105.958
				h79.2v44.001h-79.2V105.958z M228.8,202.759c-17.208,0-31.88-11.036-37.33-26.4h74.659
				C260.681,191.722,246.008,202.759,228.8,202.759z"/>
		</g>
	</g>
</g>
<g>
</g>
<g>
</g>
<g>
</g>
<g>
</g>
<g>
</g>
<g>
</g>
<g>
</g>
<g>
</g>
<g>
</g>
<g>
</g>
<g>
</g>
<g>
</g>
<g>
</g>
<g>
</g>
<g>
</g>
</svg>
