<?xml version="1.0" encoding="iso-8859-1"?>
<!-- Generator: Adobe Illustrator 19.0.0, SVG Export Plug-In . SVG Version: 6.00 Build 0)  -->
<svg version="1.1" id="Layer_1" xmlns="http://www.w3.org/2000/svg" xmlns:xlink="http://www.w3.org/1999/xlink" x="0px" y="0px"
	 viewBox="0 0 280 280" style="fill:#9D7F63;fill-opacity:1;fill-rule:nonzero;stroke:none" xml:space="preserve">
<g id="XMLID_91_">
	<path id="XMLID_92_" d="M235,105.909c0-0.047-0.007-0.092-0.007-0.139c-0.002-0.221-0.021-0.442-0.034-0.663
		c-0.016-0.31-0.031-0.619-0.065-0.924c-0.006-0.049-0.005-0.097-0.011-0.146l-11.429-90.909C222.511,5.627,216.132,0,208.571,0
		H71.429c-7.562,0-13.94,5.627-14.883,13.129l-11.429,90.909c-0.006,0.049-0.005,0.097-0.011,0.146
		c-0.034,0.304-0.05,0.613-0.065,0.922c-0.013,0.222-0.032,0.444-0.034,0.666c0,0.046-0.007,0.091-0.007,0.138
		c0,47.054,34.719,86.184,80,93.363V250H99.977c-8.284,0-15,6.716-15,15s6.716,15,15,15h80.047c8.284,0,15-6.716,15-15
		s-6.716-15-15-15H155v-50.728C200.28,192.093,235,152.962,235,105.909z M77.004,90.909L84.661,30h110.678l7.657,60.909H77.004z"/>
</g>
<g>
</g>
<g>
</g>
<g>
</g>
<g>
</g>
<g>
</g>
<g>
</g>
<g>
</g>
<g>
</g>
<g>
</g>
<g>
</g>
<g>
</g>
<g>
</g>
<g>
</g>
<g>
</g>
<g>
</g>
</svg>
